<?xml version="1.0" encoding="UTF-8"?>
<!DOCTYPE svg PUBLIC "-//W3C//DTD SVG 1.1//EN" "http://www.w3.org/Graphics/SVG/1.1/DTD/svg11.dtd">
<!-- Creator: CorelDRAW -->
<svg xmlns="http://www.w3.org/2000/svg" xml:space="preserve" width="6.82666in" height="6.82666in" style="shape-rendering:geometricPrecision; text-rendering:geometricPrecision; image-rendering:optimizeQuality; fill-rule:evenodd; clip-rule:evenodd"
viewBox="0 0 6.82666 6.82666"
 xmlns:xlink="http://www.w3.org/1999/xlink">
 <defs>
  <style type="text/css">
   <![CDATA[
    .fil2 {fill:none}
    .fil1 {fill:#9DD5C0}
    .fil0 {fill:#333333;fill-rule:nonzero}
   ]]>
  </style>
 </defs>
 <g id="Layer_x0020_1">
  <metadata id="CorelCorpID_0Corel-Layer"/>
  <g id="_429668112">
   <path id="_429669120" class="fil0" d="M3.71011 3.65594c0,-0.0441811 -0.0358189,-0.08 -0.08,-0.08 -0.0441811,0 -0.08,0.0358189 -0.08,0.08l0 1.92334 -0.273555 0 0 -1.92334c0,-0.0441811 -0.0358189,-0.08 -0.08,-0.08 -0.0441811,0 -0.08,0.0358189 -0.08,0.08l0 2.00334c0,0.0441811 0.0358189,0.08 0.08,0.08l0.433555 0c0.0441811,0 0.08,-0.0358189 0.08,-0.08l0 -2.00334z"/>
   <path id="_429668304" class="fil0" d="M4.77565 1.10683c-0.0255433,-0.0358976 -0.0753543,-0.0442913 -0.111252,-0.018748 -0.0358976,0.0255433 -0.0442913,0.0753543 -0.018748,0.111252 0.212732,0.297669 0.304524,0.65537 0.275382,1.00503 -0.0286654,0.343949 -0.174638,0.68002 -0.437898,0.94328l-3.93701e-006 3.93701e-006c-0.295413,0.295409 -0.682606,0.443118 -1.0698,0.443118l0 0.000311024c-0.387,0 -0.774185,-0.147811 -1.0698,-0.443429l-3.93701e-006 -3.93701e-006c-0.263217,-0.263217 -0.409181,-0.599209 -0.437882,-0.943087 -0.0291772,-0.349606 0.0625394,-0.707264 0.27515,-1.00492 0.0255433,-0.0358976 0.0171496,-0.0857087 -0.018748,-0.111252 -0.0358976,-0.0255433 -0.0857087,-0.0171496 -0.111252,0.018748 -0.235232,0.329323 -0.33674,0.724551 -0.304528,1.11055 0.031752,0.380457 0.193138,0.752091 0.484134,1.04309l3.93701e-006 3.93701e-006c0.326453,0.326453 0.75461,0.489685 1.18293,0.489681l0 0.000311024c0.428126,0 0.856268,-0.163335 1.18293,-0.489992l3.93701e-006 -3.93701e-006c0.291047,-0.291047 0.452433,-0.662756 0.48415,-1.04328 0.0321772,-0.386063 -0.0694094,-0.781343 -0.30476,-1.11066z"/>
   <path id="_429668424" class="fil0" d="M3.41333 0.853331c0.362795,0 0.693075,0.0270118 0.933768,0.070685 0.27611,0.0500945 0.446894,0.135819 0.446894,0.245307 0,0.109476 -0.17078,0.195213 -0.44689,0.245307 -0.240689,0.0436693 -0.570972,0.0706811 -0.933772,0.0706811 -0.362799,0 -0.693083,-0.0270118 -0.933772,-0.0706811 -0.27611,-0.0500945 -0.44689,-0.135831 -0.44689,-0.245307 0,-0.109488 0.170783,-0.195213 0.446894,-0.245307 0.240693,-0.0436732 0.570972,-0.070685 0.933768,-0.070685zm0.905642 0.227559c-0.230047,-0.0417402 -0.55011,-0.0675591 -0.905642,-0.0675591 -0.355531,0 -0.675594,0.0258189 -0.905642,0.0675591 -0.19463,0.035311 -0.31502,0.0675866 -0.31502,0.0884331 0,0.0208504 0.120386,0.053122 0.315016,0.0884331 0.230051,0.0417362 0.55011,0.0675551 0.905646,0.0675551 0.355535,0 0.675594,-0.0258189 0.905646,-0.0675551 0.19463,-0.035311 0.315016,-0.0675827 0.315016,-0.0884331 0,-0.0208465 -0.12039,-0.053122 -0.31502,-0.0884331z"/>
   <path id="_429668088" class="fil0" d="M3.63341 5.34496c-0.0440079,-0.00120866 -0.0806693,0.0334921 -0.081878,0.0775 -0.00120866,0.0440079 0.0334921,0.0806693 0.0775,0.081878 0.30422,0.00931102 0.571685,0.0380787 0.762016,0.0789803 0.151571,0.0325748 0.242941,0.059374 0.242941,0.0740236 0,0.0208465 -0.120386,0.053122 -0.315012,0.088437 -0.230051,0.0417362 -0.55011,0.0675551 -0.905646,0.0675551 -0.355535,0 -0.675594,-0.0258189 -0.905646,-0.0675551 -0.194626,-0.035315 -0.315012,-0.0675906 -0.315012,-0.088437 0,-0.0146339 0.0912835,-0.0414134 0.242728,-0.0739764 0.190201,-0.0408976 0.457504,-0.0696732 0.761551,-0.0790079 0.0440079,-0.00120866 0.0787087,-0.0378701 0.0775,-0.081878 -0.00120866,-0.0440079 -0.0378701,-0.0787087 -0.081878,-0.0775 -0.315012,0.00966929 -0.592425,0.0395866 -0.790299,0.0821339 -0.23061,0.0495827 -0.369602,0.128961 -0.369602,0.230228 0,0.109484 0.170783,0.195213 0.446886,0.245311 0.240689,0.0436693 0.570972,0.0706811 0.933772,0.0706811 0.362799,0 0.693083,-0.0270118 0.933772,-0.0706811 0.276102,-0.0500984 0.446886,-0.135827 0.446886,-0.245311 0,-0.101295 -0.139083,-0.180689 -0.369815,-0.230276 -0.198008,-0.0425512 -0.475591,-0.0724606 -0.790764,-0.0821063z"/>
  </g>
  <path class="fil1" d="M3.41333 1.32531c0.355535,0 0.675594,-0.0258189 0.905646,-0.0675551 0.185543,-0.0336614 0.30361,-0.064563 0.314232,-0.085437 -0.000681102,-0.00275591 -0.00121654,-0.00553543 -0.00159843,-0.00832283 -0.0177638,-0.0208071 -0.133894,-0.0506772 -0.312638,-0.0831063 -0.230047,-0.0417402 -0.55011,-0.0675591 -0.905642,-0.0675591 -0.355531,0 -0.675594,0.0258189 -0.905642,0.0675591 -0.179461,0.0325591 -0.295803,0.0625394 -0.312846,0.0833543 -0.000362205,0.00264173 -0.000854331,0.00527165 -0.00148425,0.00788189 0.00999606,0.020878 0.128217,0.0518661 0.314327,0.0856299 0.230051,0.0417362 0.55011,0.0675551 0.905646,0.0675551z"/>
  <path class="fil1" d="M4.3471 1.41463c-0.240689,0.0436693 -0.570972,0.0706811 -0.933772,0.0706811 -0.362799,0 -0.693083,-0.0270118 -0.933772,-0.0706811 -0.159886,-0.0290079 -0.284449,-0.0699685 -0.360992,-0.120567 -0.168102,0.277295 -0.239079,0.597126 -0.212925,0.910492 0.0287008,0.343878 0.174665,0.67987 0.437886,0.943091 0.241118,0.241118 0.543154,0.383906 0.856323,0.428358 0.00519685,0.000212598 0.0102677,0.000917323 0.0151654,0.0020748 0.0658031,0.00866535 0.132063,0.0129961 0.198315,0.0129961l0 -0.000311024c0.0674961,0 0.134996,-0.00448819 0.202004,-0.0134646 0.00253543,-0.000472441 0.00511024,-0.000826772 0.00772441,-0.00105512 0.314642,-0.0437953 0.618138,-0.186665 0.860079,-0.428602 0.26326,-0.26326 0.409232,-0.599331 0.437898,-0.94328 0.0261102,-0.313299 -0.0448661,-0.633055 -0.212941,-0.910299 -0.0765394,0.0505984 -0.201106,0.0915591 -0.360992,0.120567z"/>
  <path class="fil1" d="M3.55011 3.7452c-0.0455118,0.0037126 -0.0911417,0.00556693 -0.136776,0.00556693l0 -0.000311024c-0.0456378,0 -0.0912717,-0.00185039 -0.13678,-0.00555906l0 1.83439 0.273555 0 0 -1.83408z"/>
  <path class="fil1" d="M4.39105 5.58331c-0.173232,-0.0372283 -0.410358,-0.0644016 -0.680941,-0.0760039l0 0.151969c0,0.0441811 -0.0358189,0.08 -0.08,0.08l-0.433555 0c-0.0441811,0 -0.08,-0.0358189 -0.08,-0.08l0 -0.151972c-0.270685,0.0116063 -0.507902,0.0388031 -0.68115,0.0760551 -0.151445,0.032563 -0.242728,0.0593425 -0.242728,0.0739764 0,0.0208465 0.120386,0.053122 0.315012,0.088437 0.230051,0.0417362 0.55011,0.0675551 0.905646,0.0675551 0.355535,0 0.675594,-0.0258189 0.905646,-0.0675551 0.194626,-0.035315 0.315012,-0.0675906 0.315012,-0.088437 0,-0.0146496 -0.0913701,-0.0414488 -0.242941,-0.0740236z"/>
 </g>
 <rect class="fil2" width="6.82666" height="6.82666"/>
</svg>
