<?xml version="1.0" encoding="UTF-8"?>
<svg id="Capa_1" data-name="Capa 1" xmlns="http://www.w3.org/2000/svg" viewBox="0 0 187.67 69.86">
  <defs>
    <style>
      .cls-1 {
        fill: #669abe;
      }

      .cls-2 {
        fill: #6c757d;
      }

      .cls-3 {
        fill: #d9d9d9;
      }
    </style>
  </defs>
  <g>
    <path class="cls-1" d="M116.83,6.73v5.14h-7.86v22.8h-6.48V11.87h-7.86V6.73h22.21Z"/>
    <path class="cls-1" d="M147.09,20.69c0,2.02-.35,3.9-1.05,5.64s-1.68,3.25-2.94,4.53c-1.27,1.29-2.79,2.29-4.57,3.02s-3.76,1.09-5.93,1.09-4.16-.36-5.95-1.09-3.32-1.73-4.59-3.02c-1.27-1.28-2.26-2.8-2.95-4.53s-1.05-3.62-1.05-5.64,.35-3.9,1.05-5.64c.7-1.74,1.68-3.25,2.95-4.52,1.27-1.28,2.8-2.28,4.59-3.01s3.77-1.09,5.95-1.09,4.15,.37,5.93,1.1c1.78,.74,3.31,1.74,4.57,3.02,1.27,1.28,2.25,2.79,2.94,4.53,.7,1.74,1.05,3.61,1.05,5.62Zm-6.64,0c0-1.38-.18-2.62-.54-3.73s-.87-2.04-1.54-2.81c-.67-.77-1.49-1.35-2.46-1.76-.97-.41-2.08-.61-3.32-.61s-2.37,.2-3.35,.61c-.98,.41-1.8,1-2.47,1.76-.67,.77-1.19,1.7-1.54,2.81s-.54,2.35-.54,3.73,.18,2.64,.54,3.75c.36,1.11,.87,2.04,1.54,2.81,.67,.77,1.49,1.35,2.47,1.76,.98,.4,2.09,.6,3.35,.6s2.35-.2,3.32-.6c.97-.4,1.79-.99,2.46-1.76,.67-.77,1.19-1.7,1.54-2.81,.36-1.11,.54-2.36,.54-3.75Z"/>
    <path class="cls-1" d="M157.82,25.33v9.34h-6.48V6.73h9.86c1.97,0,3.66,.23,5.07,.7,1.41,.47,2.58,1.11,3.49,1.93,.91,.82,1.59,1.78,2.02,2.9,.43,1.11,.65,2.31,.65,3.61,0,1.39-.22,2.67-.67,3.83-.45,1.16-1.13,2.16-2.05,2.99-.92,.83-2.09,1.48-3.5,1.95-1.41,.47-3.08,.7-5.01,.7h-3.37Zm0-4.89h3.37c1.69,0,2.9-.4,3.64-1.21,.74-.81,1.11-1.93,1.11-3.37,0-.64-.1-1.22-.29-1.74-.19-.52-.48-.98-.87-1.35-.39-.38-.88-.67-1.48-.87-.6-.2-1.3-.31-2.12-.31h-3.37v8.86Z"/>
    <path class="cls-1" d="M33.15,6.73v5.14h-7.86v22.8h-6.48V11.87h-7.86V6.73h22.21Z"/>
    <path class="cls-1" d="M63.41,20.69c0,2.02-.35,3.9-1.05,5.64s-1.68,3.25-2.94,4.53c-1.27,1.29-2.79,2.29-4.57,3.02s-3.76,1.09-5.93,1.09-4.16-.36-5.95-1.09-3.32-1.73-4.59-3.02c-1.27-1.28-2.26-2.8-2.95-4.53s-1.05-3.62-1.05-5.64,.35-3.9,1.05-5.64c.7-1.74,1.68-3.25,2.95-4.52,1.27-1.28,2.8-2.28,4.59-3.01s3.77-1.09,5.95-1.09,4.15,.37,5.93,1.1c1.78,.74,3.31,1.74,4.57,3.02,1.27,1.28,2.25,2.79,2.94,4.53,.7,1.74,1.05,3.61,1.05,5.62Zm-6.64,0c0-1.38-.18-2.62-.54-3.73s-.87-2.04-1.54-2.81c-.67-.77-1.49-1.35-2.46-1.76-.97-.41-2.08-.61-3.32-.61s-2.37,.2-3.35,.61c-.98,.41-1.8,1-2.47,1.76-.67,.77-1.19,1.7-1.54,2.81s-.54,2.35-.54,3.73,.18,2.64,.54,3.75c.36,1.11,.87,2.04,1.54,2.81,.67,.77,1.49,1.35,2.47,1.76,.98,.4,2.09,.6,3.35,.6s2.35-.2,3.32-.6c.97-.4,1.79-.99,2.46-1.76,.67-.77,1.19-1.7,1.54-2.81,.36-1.11,.54-2.36,.54-3.75Z"/>
    <path class="cls-1" d="M74.15,25.33v9.34h-6.48V6.73h9.86c1.97,0,3.66,.23,5.07,.7,1.41,.47,2.58,1.11,3.49,1.93,.91,.82,1.59,1.78,2.02,2.9,.43,1.11,.65,2.31,.65,3.61,0,1.39-.22,2.67-.67,3.83-.45,1.16-1.13,2.16-2.05,2.99-.92,.83-2.09,1.48-3.5,1.95-1.41,.47-3.08,.7-5.01,.7h-3.37Zm0-4.89h3.37c1.69,0,2.9-.4,3.64-1.21,.74-.81,1.11-1.93,1.11-3.37,0-.64-.1-1.22-.29-1.74-.19-.52-.48-.98-.87-1.35-.39-.38-.88-.67-1.48-.87-.6-.2-1.3-.31-2.12-.31h-3.37v8.86Z"/>
  </g>
  <polygon class="cls-3" points="93.84 38.3 96.96 47.9 107.05 47.9 98.88 53.84 102 63.44 93.84 57.5 85.67 63.44 88.79 53.84 80.62 47.9 90.72 47.9 93.84 38.3"/>
  <polygon class="cls-2" points="84.57 45.25 10.38 45.25 7.01 39.73 86.89 39.73 84.57 45.25"/>
  <polygon class="cls-2" points="103.1 45.25 177.29 45.25 180.67 39.73 100.78 39.73 103.1 45.25"/>
</svg>