<?xml version="1.0" encoding="UTF-8"?>
<!DOCTYPE svg PUBLIC "-//W3C//DTD SVG 1.1//EN" "http://www.w3.org/Graphics/SVG/1.1/DTD/svg11.dtd">
<!-- Creator: CorelDRAW -->
<svg xmlns="http://www.w3.org/2000/svg" xml:space="preserve" width="6.82666in" height="6.82666in" style="shape-rendering:geometricPrecision; text-rendering:geometricPrecision; image-rendering:optimizeQuality; fill-rule:evenodd; clip-rule:evenodd"
viewBox="0 0 6.82666 6.82666"
 xmlns:xlink="http://www.w3.org/1999/xlink">
 <defs>
  <style type="text/css">
   <![CDATA[
    .fil4 {fill:none}
    .fil1 {fill:#333333}
    .fil3 {fill:#F19A7B}
    .fil2 {fill:#FFD3B3}
    .fil0 {fill:#333333;fill-rule:nonzero}
   ]]>
  </style>
 </defs>
 <g id="Layer_x0020_1">
  <metadata id="CorelCorpID_0Corel-Layer"/>
  <g id="_624994904">
   <path id="_624994160" class="fil0" d="M1.07589 2.76527c0.0331339,0.0291654 0.0836457,0.0259449 0.112811,-0.00718898 0.0291654,-0.0331339 0.0259449,-0.0836457 -0.00718898,-0.112811 -0.0534213,-0.0470984 -0.0963622,-0.103 -0.125437,-0.164717 -0.0275236,-0.0584055 -0.0427402,-0.122571 -0.0427402,-0.189917 0,-0.137343 0.0639921,-0.262693 0.167079,-0.354 0.105713,-0.0936299 0.252311,-0.151752 0.414256,-0.151752l3.63733 0c0.161945,0 0.308543,0.058122 0.414256,0.151752 0.103087,0.0913071 0.167079,0.216657 0.167079,0.354 0,0.0673465 -0.0152165,0.131512 -0.0427402,0.189917 -0.0290748,0.0617165 -0.0720157,0.117618 -0.125437,0.164717 -0.0331339,0.0291654 -0.0363543,0.0796772 -0.00718898,0.112811 0.0291654,0.0331339 0.0796772,0.0363543 0.112811,0.00718898 0.0694094,-0.0611929 0.125606,-0.134685 0.164193,-0.216591 0.0375827,-0.0797559 0.0583622,-0.166953 0.0583622,-0.258043 0,-0.184819 -0.0848189,-0.352354 -0.221457,-0.473378 -0.134012,-0.118693 -0.318091,-0.192374 -0.519878,-0.192374l-3.63733 0c-0.201787,0 -0.385866,0.0736811 -0.519878,0.192374 -0.136638,0.121024 -0.221457,0.288559 -0.221457,0.473378 0,0.0910906 0.0207795,0.178287 0.0583622,0.258043 0.0385866,0.0819055 0.0947835,0.155398 0.164193,0.216591z"/>
   <path id="_624993344" class="fil0" d="M1.71372 2.39022l3.39921 0c0.234528,0 0.448374,0.0855394 0.603965,0.22335 0.158217,0.140138 0.256429,0.334035 0.256429,0.547854l0 7.87402e-006c0,0.213819 -0.0982126,0.407717 -0.256429,0.547854 -0.155591,0.137811 -0.369437,0.22335 -0.603965,0.22335l-3.39921 0c-0.234528,0 -0.448374,-0.0855394 -0.603965,-0.22335 -0.158217,-0.140138 -0.256429,-0.334035 -0.256429,-0.547854l0 -7.87402e-006c0,-0.213819 0.0982126,-0.407717 0.256429,-0.547854 0.155591,-0.137811 0.369437,-0.22335 0.603965,-0.22335zm3.39921 0.16l-3.39921 0c-0.194689,0 -0.371051,0.0699843 -0.498343,0.182728 -0.124665,0.110417 -0.202051,0.262134 -0.202051,0.428476l0 7.87402e-006c0,0.166346 0.0773858,0.318059 0.202051,0.428476 0.127291,0.112744 0.303654,0.182728 0.498343,0.182728l3.39921 0c0.194689,0 0.371051,-0.0699843 0.498343,-0.182728 0.124665,-0.110417 0.202051,-0.26213 0.202051,-0.428476l0 -7.87402e-006c0,-0.166343 -0.0773858,-0.318059 -0.202051,-0.428476 -0.127291,-0.112744 -0.303654,-0.182728 -0.498343,-0.182728z"/>
   <path id="_624993776" class="fil0" d="M5.66891 3.62922c-0.0329646,-0.0293386 -0.0834764,-0.0264016 -0.112815,0.00656299 -0.0293386,0.0329646 -0.0264016,0.0834764 0.00656299,0.112815 0.079563,0.0707126 0.143461,0.154437 0.186705,0.246744 0.0411969,0.0879528 0.0639724,0.184571 0.0639724,0.286035 0,0.207366 -0.0963307,0.396378 -0.251528,0.533839 -0.157819,0.139783 -0.376287,0.226551 -0.617295,0.226551l-3.06235 0c-0.241008,0 -0.459476,-0.0867677 -0.617295,-0.226551 -0.155197,-0.137461 -0.251528,-0.326472 -0.251528,-0.533839 0,-0.101465 0.0227756,-0.198083 0.0639724,-0.286035 0.0432441,-0.0923071 0.107142,-0.176031 0.186705,-0.246744 0.0329646,-0.0293386 0.0359016,-0.0798504 0.00656299,-0.112815 -0.0293386,-0.0329646 -0.0798504,-0.0359016 -0.112815,-0.00656299 -0.0950315,0.0844646 -0.171961,0.18576 -0.224831,0.298618 -0.0512598,0.109433 -0.0795945,0.22889 -0.0795945,0.353539 0,0.254843 0.117154,0.486035 0.305906,0.653217 0.186118,0.16485 0.442071,0.267173 0.722917,0.267173l3.06235 0c0.280846,0 0.536799,-0.102323 0.722917,-0.267173 0.188752,-0.167181 0.305906,-0.398374 0.305906,-0.653217 0,-0.12465 -0.0283346,-0.244106 -0.0795945,-0.353539 -0.0528701,-0.112858 -0.129799,-0.214154 -0.224831,-0.298618z"/>
   <path id="_624993248" class="fil0" d="M1.33333 3.19063c-0.0441811,0 -0.08,0.0358189 -0.08,0.08 0,0.0441811 0.0358189,0.08 0.08,0.08 0.096878,0 0.17713,-0.0631969 0.257374,-0.126386 0.0584173,-0.046 0.116843,-0.0920079 0.158626,-0.0920079 0.0417874,0 0.100209,0.0460079 0.158626,0.0920079 0.0802441,0.063189 0.160496,0.126386 0.257374,0.126386 0.096874,0 0.177134,-0.0631929 0.257374,-0.12639 0.0584173,-0.046 0.116843,-0.0920079 0.15863,-0.0920079 0.0417874,0 0.100209,0.0460079 0.158626,0.0920079 0.0802441,0.0631929 0.160492,0.12639 0.257374,0.12639 0.096874,0 0.17713,-0.0631969 0.25737,-0.126386 0.0584173,-0.046 0.116843,-0.0920079 0.158626,-0.0920079 0.0417835,0 0.100209,0.0460079 0.158626,0.0920079 0.0802402,0.063189 0.160496,0.126386 0.25737,0.126386 0.096878,0 0.17713,-0.0631969 0.257374,-0.126386 0.0584173,-0.046 0.116839,-0.0920079 0.158626,-0.0920079 0.0417874,0 0.100213,0.0460079 0.15863,0.0920079 0.0802402,0.063189 0.160496,0.126386 0.257374,0.126386 0.096878,0 0.17713,-0.0631969 0.257374,-0.126386 0.0584173,-0.046 0.116839,-0.0920079 0.158626,-0.0920079 0.0417835,0 0.100209,0.0460079 0.158626,0.0920079 0.0802441,0.063189 0.160496,0.126386 0.257374,0.126386 0.0441811,0 0.08,-0.0358189 0.08,-0.08 0,-0.0441811 -0.0358189,-0.08 -0.08,-0.08 -0.0417874,0 -0.100209,-0.0460079 -0.158626,-0.0920079 -0.0802441,-0.063189 -0.160496,-0.126386 -0.257374,-0.126386 -0.096878,0 -0.17713,0.0631969 -0.257374,0.126386 -0.0584173,0.046 -0.116843,0.0920079 -0.158626,0.0920079 -0.0417913,0 -0.100213,-0.0460079 -0.158626,-0.0920079 -0.0802441,-0.063189 -0.1605,-0.126386 -0.257378,-0.126386 -0.096878,0 -0.17713,0.0631969 -0.257374,0.126386 -0.0584173,0.046 -0.116843,0.0920079 -0.158626,0.0920079 -0.0417874,0 -0.100209,-0.0460079 -0.158622,-0.0920079 -0.0802441,-0.063189 -0.160496,-0.126386 -0.257374,-0.126386 -0.096878,0 -0.17713,0.0631969 -0.257374,0.126386 -0.0584134,0.046 -0.116835,0.0920079 -0.158622,0.0920079 -0.0417874,0 -0.100209,-0.0460079 -0.158626,-0.0920118 -0.0802441,-0.063189 -0.160496,-0.126386 -0.257374,-0.126386 -0.096878,0 -0.177134,0.0631969 -0.257378,0.126386 -0.0584134,0.0460039 -0.116839,0.0920118 -0.158626,0.0920118 -0.0417835,0 -0.100209,-0.0460079 -0.158626,-0.0920079 -0.0802441,-0.063189 -0.160496,-0.126386 -0.257374,-0.126386 -0.096878,0 -0.17713,0.0631969 -0.257374,0.126386 -0.0584173,0.046 -0.116839,0.0920079 -0.158626,0.0920079z"/>
   <g>
    <g>
     <circle id="_624993632" class="fil1" cx="1.43763" cy="4.13839" r="0.08"/>
     <circle id="_624993200" class="fil1" cx="1.87668" cy="4.13839" r="0.08"/>
     <circle id="_624993704" class="fil1" cx="2.31572" cy="4.13839" r="0.08"/>
     <circle id="_624993896" class="fil1" cx="2.75476" cy="4.13839" r="0.08"/>
     <circle id="_624993152" class="fil1" cx="3.19381" cy="4.13839" r="0.08"/>
     <circle id="_624993224" class="fil1" cx="3.63285" cy="4.13839" r="0.08"/>
     <circle id="_624992888" class="fil1" cx="4.07189" cy="4.13839" r="0.08"/>
     <circle id="_624992504" class="fil1" cx="4.51094" cy="4.13839" r="0.08"/>
     <circle id="_624992936" class="fil1" cx="4.94998" cy="4.13839" r="0.08"/>
     <circle id="_624992840" class="fil1" cx="5.38902" cy="4.13839" r="0.08"/>
    </g>
    <g>
     <circle id="_624992408" class="fil1" cx="1.21811" cy="4.36781" r="0.08"/>
     <circle id="_624992384" class="fil1" cx="1.65716" cy="4.36781" r="0.08"/>
     <circle id="_624992600" class="fil1" cx="2.0962" cy="4.36781" r="0.08"/>
     <circle id="_624991880" class="fil1" cx="2.53524" cy="4.36781" r="0.08"/>
     <circle id="_624992288" class="fil1" cx="2.97429" cy="4.36781" r="0.08"/>
     <circle id="_624992216" class="fil1" cx="3.41333" cy="4.36781" r="0.08"/>
     <circle id="_624991808" class="fil1" cx="3.85237" cy="4.36781" r="0.08"/>
     <circle id="_624991640" class="fil1" cx="4.29142" cy="4.36781" r="0.08"/>
     <circle id="_624991976" class="fil1" cx="4.73046" cy="4.36781" r="0.08"/>
     <circle id="_624992072" class="fil1" cx="5.1695" cy="4.36781" r="0.08"/>
     <circle id="_624992360" class="fil1" cx="5.60855" cy="4.36781" r="0.08"/>
    </g>
    <g>
     <circle id="_624990872" class="fil1" cx="1.43763" cy="4.59724" r="0.08"/>
     <circle id="_624991568" class="fil1" cx="1.87668" cy="4.59724" r="0.08"/>
     <circle id="_624991520" class="fil1" cx="2.31572" cy="4.59724" r="0.08"/>
     <circle id="_624991400" class="fil1" cx="2.75476" cy="4.59724" r="0.08"/>
     <circle id="_624991352" class="fil1" cx="3.19381" cy="4.59724" r="0.08"/>
     <circle id="_624991496" class="fil1" cx="3.63285" cy="4.59724" r="0.08"/>
     <circle id="_624991184" class="fil1" cx="4.07189" cy="4.59724" r="0.08"/>
     <circle id="_624991136" class="fil1" cx="4.51094" cy="4.59724" r="0.08"/>
     <circle id="_624990800" class="fil1" cx="4.94998" cy="4.59724" r="0.08"/>
     <circle id="_624990320" class="fil1" cx="5.38902" cy="4.59724" r="0.08"/>
    </g>
    <g>
     <circle id="_624990632" class="fil1" cx="1.65716" cy="4.82666" r="0.08"/>
     <circle id="_624990200" class="fil1" cx="2.0962" cy="4.82666" r="0.08"/>
     <circle id="_624990656" class="fil1" cx="2.53524" cy="4.82666" r="0.08"/>
     <circle id="_624990440" class="fil1" cx="2.97429" cy="4.82666" r="0.08"/>
     <circle id="_624990512" class="fil1" cx="3.41333" cy="4.82666" r="0.08"/>
     <circle id="_624989336" class="fil1" cx="3.85237" cy="4.82666" r="0.08"/>
     <circle id="_624990008" class="fil1" cx="4.29142" cy="4.82666" r="0.08"/>
     <circle id="_624989696" class="fil1" cx="4.73046" cy="4.82666" r="0.08"/>
     <circle id="_624989672" class="fil1" cx="5.1695" cy="4.82666" r="0.08"/>
    </g>
   </g>
   <g>
    <circle id="_624989648" class="fil1" cx="1.43763" cy="1.96607" r="0.08"/>
    <circle id="_624989600" class="fil1" cx="1.87668" cy="1.96607" r="0.08"/>
    <circle id="_624989936" class="fil1" cx="2.31572" cy="1.96607" r="0.08"/>
    <circle id="_624989144" class="fil1" cx="2.75476" cy="1.96607" r="0.08"/>
    <circle id="_624989048" class="fil1" cx="3.19381" cy="1.96607" r="0.08"/>
    <circle id="_624989072" class="fil1" cx="3.63285" cy="1.96607" r="0.08"/>
    <circle id="_624989096" class="fil1" cx="4.07189" cy="1.96607" r="0.08"/>
    <circle id="_624989264" class="fil1" cx="4.51094" cy="1.96607" r="0.08"/>
    <circle id="_624988688" class="fil1" cx="4.94998" cy="1.96607" r="0.08"/>
    <circle id="_624988568" class="fil1" cx="5.38902" cy="1.96607" r="0.08"/>
   </g>
   <g>
    <circle id="_624989000" class="fil1" cx="1.21811" cy="2.19549" r="0.08"/>
    <circle id="_624988016" class="fil1" cx="1.65716" cy="2.19549" r="0.08"/>
    <circle id="_624988184" class="fil1" cx="2.0962" cy="2.19549" r="0.08"/>
    <circle id="_624988448" class="fil1" cx="2.53524" cy="2.19549" r="0.08"/>
    <circle id="_624988304" class="fil1" cx="2.97429" cy="2.19549" r="0.08"/>
    <circle id="_624988352" class="fil1" cx="3.41333" cy="2.19549" r="0.08"/>
    <circle id="_624995552" class="fil1" cx="3.85237" cy="2.19549" r="0.08"/>
    <circle id="_624995840" class="fil1" cx="4.29142" cy="2.19549" r="0.08"/>
    <circle id="_624995480" class="fil1" cx="4.73046" cy="2.19549" r="0.08"/>
    <circle id="_624995744" class="fil1" cx="5.1695" cy="2.19549" r="0.08"/>
    <circle id="_624994952" class="fil1" cx="5.60855" cy="2.19549" r="0.08"/>
   </g>
  </g>
  <path class="fil2" d="M5.60855 2.27549c-0.0441811,0 -0.08,-0.0358189 -0.08,-0.08 0,-0.0441811 0.0358189,-0.08 0.08,-0.08 0.0441811,0 0.08,0.0358189 0.08,0.08 0,0.0441811 -0.0358189,0.08 -0.08,0.08zm-0.49561 0.114732c0.223823,0 0.428807,0.0779094 0.582295,0.204807 0.0305827,-0.0350039 0.0560315,-0.0734567 0.0753583,-0.114476 0.0275236,-0.0584055 0.0427402,-0.122571 0.0427402,-0.189917 0,-0.137343 -0.0639921,-0.262693 -0.167079,-0.354 -0.105713,-0.0936299 -0.252311,-0.151752 -0.414256,-0.151752l-3.63733 0c-0.161945,0 -0.308543,0.058122 -0.414256,0.151752 -0.103087,0.0913071 -0.167079,0.216657 -0.167079,0.354 0,0.0673465 0.0152165,0.131512 0.0427402,0.189917 0.0193228,0.0410197 0.0447756,0.0794724 0.0753583,0.114476 0.153488,-0.126898 0.358472,-0.204807 0.582295,-0.204807l3.39921 0zm0.356087 -0.424157c0,0.0441811 -0.0358189,0.08 -0.08,0.08 -0.0441811,0 -0.08,-0.0358189 -0.08,-0.08 0,-0.0441811 0.0358189,-0.08 0.08,-0.08 0.0441811,0 0.08,0.0358189 0.08,0.08zm-1.09761 0.229425c0,0.0441811 -0.0358189,0.08 -0.08,0.08 -0.0441811,0 -0.08,-0.0358189 -0.08,-0.08 0,-0.0441811 0.0358189,-0.08 0.08,-0.08 0.0441811,0 0.08,0.0358189 0.08,0.08zm-0.439043 0c0,0.0441811 -0.0358189,0.08 -0.08,0.08 -0.0441811,0 -0.08,-0.0358189 -0.08,-0.08 0,-0.0441811 0.0358189,-0.08 0.08,-0.08 0.0441811,0 0.08,0.0358189 0.08,0.08zm-0.519043 -0.08c0.0441811,0 0.08,0.0358189 0.08,0.08 0,0.0441811 -0.0358189,0.08 -0.08,0.08 -0.0441811,0 -0.08,-0.0358189 -0.08,-0.08 0,-0.0441811 0.0358189,-0.08 0.08,-0.08zm-0.439043 0c0.0441811,0 0.08,0.0358189 0.08,0.08 0,0.0441811 -0.0358189,0.08 -0.08,0.08 -0.0441811,0 -0.08,-0.0358189 -0.08,-0.08 0,-0.0441811 0.0358189,-0.08 0.08,-0.08zm-1.45665 -0.149425c0,0.0441811 -0.0358189,0.08 -0.08,0.08 -0.0441811,0 -0.08,-0.0358189 -0.08,-0.08 0,-0.0441811 0.0358189,-0.08 0.08,-0.08 0.0441811,0 0.08,0.0358189 0.08,0.08zm1.09761 0.229425c0,0.0441811 -0.0358189,0.08 -0.08,0.08 -0.0441811,0 -0.08,-0.0358189 -0.08,-0.08 0,-0.0441811 0.0358189,-0.08 0.08,-0.08 0.0441811,0 0.08,0.0358189 0.08,0.08zm-0.519043 -0.08c0.0441811,0 0.08,0.0358189 0.08,0.08 0,0.0441811 -0.0358189,0.08 -0.08,0.08 -0.0441811,0 -0.08,-0.0358189 -0.08,-0.08 0,-0.0441811 0.0358189,-0.08 0.08,-0.08zm-0.439043 0c0.0441811,0 0.08,0.0358189 0.08,0.08 0,0.0441811 -0.0358189,0.08 -0.08,0.08 -0.0441811,0 -0.08,-0.0358189 -0.08,-0.08 0,-0.0441811 0.0358189,-0.08 0.08,-0.08zm-0.439043 0c0.0441811,0 0.08,0.0358189 0.08,0.08 0,0.0441811 -0.0358189,0.08 -0.08,0.08 -0.0441811,0 -0.08,-0.0358189 -0.08,-0.08 0,-0.0441811 0.0358189,-0.08 0.08,-0.08zm3.95139 0c0.0441811,0 0.08,0.0358189 0.08,0.08 0,0.0441811 -0.0358189,0.08 -0.08,0.08 -0.0441811,0 -0.08,-0.0358189 -0.08,-0.08 0,-0.0441811 0.0358189,-0.08 0.08,-0.08zm-0.439043 0c0.0441811,0 0.08,0.0358189 0.08,0.08 0,0.0441811 -0.0358189,0.08 -0.08,0.08 -0.0441811,0 -0.08,-0.0358189 -0.08,-0.08 0,-0.0441811 0.0358189,-0.08 0.08,-0.08zm0.21952 -0.229425c0.0441811,0 0.08,0.0358189 0.08,0.08 0,0.0441811 -0.0358189,0.08 -0.08,0.08 -0.0441811,0 -0.08,-0.0358189 -0.08,-0.08 0,-0.0441811 0.0358189,-0.08 0.08,-0.08zm-0.439043 0c0.0441811,0 0.08,0.0358189 0.08,0.08 0,0.0441811 -0.0358189,0.08 -0.08,0.08 -0.0441811,0 -0.08,-0.0358189 -0.08,-0.08 0,-0.0441811 0.0358189,-0.08 0.08,-0.08zm-0.439043 0c0.0441811,0 0.08,0.0358189 0.08,0.08 0,0.0441811 -0.0358189,0.08 -0.08,0.08 -0.0441811,0 -0.08,-0.0358189 -0.08,-0.08 0,-0.0441811 0.0358189,-0.08 0.08,-0.08zm-0.439043 0c0.0441811,0 0.08,0.0358189 0.08,0.08 0,0.0441811 -0.0358189,0.08 -0.08,0.08 -0.0441811,0 -0.08,-0.0358189 -0.08,-0.08 0,-0.0441811 0.0358189,-0.08 0.08,-0.08zm-0.439043 0c0.0441811,0 0.08,0.0358189 0.08,0.08 0,0.0441811 -0.0358189,0.08 -0.08,0.08 -0.0441811,0 -0.08,-0.0358189 -0.08,-0.08 0,-0.0441811 0.0358189,-0.08 0.08,-0.08zm-0.439043 0c0.0441811,0 0.08,0.0358189 0.08,0.08 0,0.0441811 -0.0358189,0.08 -0.08,0.08 -0.0441811,0 -0.08,-0.0358189 -0.08,-0.08 0,-0.0441811 0.0358189,-0.08 0.08,-0.08zm-0.439043 0c0.0441811,0 0.08,0.0358189 0.08,0.08 0,0.0441811 -0.0358189,0.08 -0.08,0.08 -0.0441811,0 -0.08,-0.0358189 -0.08,-0.08 0,-0.0441811 0.0358189,-0.08 0.08,-0.08zm-0.439043 0c0.0441811,0 0.08,0.0358189 0.08,0.08 0,0.0441811 -0.0358189,0.08 -0.08,0.08 -0.0441811,0 -0.08,-0.0358189 -0.08,-0.08 0,-0.0441811 0.0358189,-0.08 0.08,-0.08z"/>
  <path class="fil3" d="M5.61128 2.73295c-0.127291,-0.112744 -0.303654,-0.182728 -0.498343,-0.182728l-3.39921 0c-0.194689,0 -0.371051,0.0699843 -0.498343,0.182728 -0.00883858,0.00783071 -0.0174409,0.0158661 -0.0257953,0.0241024 -0.000291339,0.00034252 -0.000590551,0.000685039 -0.000889764,0.00102756 -0.00251575,0.00285827 -0.00518898,0.00549213 -0.00799606,0.00790157 -0.104173,0.106748 -0.16737,0.245126 -0.16737,0.395453 0,0.166346 0.0773858,0.318059 0.202051,0.428476 0.0123071,0.0109016 0.0250748,0.0214016 0.0382717,0.0314803 0.00345276,0.00218898 0.00676772,0.00466535 0.00990945,0.0074252 0.121949,0.0897126 0.278969,0.143823 0.450161,0.143823l3.39921 0c0.171193,0 0.328213,-0.0541102 0.450161,-0.143823 0.00314173,-0.00275984 0.00645669,-0.00523622 0.00990945,-0.0074252 0.0131969,-0.0100787 0.0259646,-0.0205787 0.0382717,-0.0314803 0.124665,-0.110417 0.202051,-0.26213 0.202051,-0.428484 0,-0.150319 -0.0631969,-0.288697 -0.16737,-0.395445 -0.00280709,-0.00240945 -0.00548031,-0.00504331 -0.00799606,-0.00790157 -0.000299213,-0.00034252 -0.000598425,-0.000685039 -0.000889764,-0.00102756 -0.00835433,-0.00823622 -0.0169567,-0.0162717 -0.0257953,-0.0241024zm-3.02994 0.23928c0.096878,0 0.17713,0.0631969 0.257374,0.126386 0.0584173,0.0460039 0.116839,0.0920118 0.158626,0.0920118 0.0417874,0 0.100209,-0.0460079 0.158622,-0.0920079 0.0802441,-0.063189 0.160496,-0.126386 0.257374,-0.126386 0.096878,0 0.17713,0.0631969 0.257374,0.126386 0.0584134,0.046 0.116835,0.0920079 0.158622,0.0920079 0.0417835,0 0.100209,-0.0460079 0.158626,-0.0920079 0.0802441,-0.063189 0.160496,-0.126386 0.257374,-0.126386 0.096878,0 0.177134,0.0631969 0.257378,0.126386 0.0584134,0.046 0.116835,0.0920079 0.158626,0.0920079 0.0417835,0 0.100209,-0.0460079 0.158626,-0.0920079 0.0802441,-0.063189 0.160496,-0.126386 0.257374,-0.126386 0.096878,0 0.17713,0.0631969 0.257374,0.126386 0.0584173,0.046 0.116839,0.0920079 0.158626,0.0920079 0.0441811,0 0.08,0.0358189 0.08,0.08 0,0.0441811 -0.0358189,0.08 -0.08,0.08 -0.096878,0 -0.17713,-0.0631969 -0.257374,-0.126386 -0.0584173,-0.046 -0.116843,-0.0920079 -0.158626,-0.0920079 -0.0417874,0 -0.100209,0.0460079 -0.158626,0.0920079 -0.0802441,0.063189 -0.160496,0.126386 -0.257374,0.126386 -0.096878,0 -0.177134,-0.0631969 -0.257374,-0.126386 -0.0584173,-0.046 -0.116843,-0.0920079 -0.15863,-0.0920079 -0.0417874,0 -0.100209,0.0460079 -0.158626,0.0920079 -0.0802441,0.063189 -0.160496,0.126386 -0.257374,0.126386 -0.096874,0 -0.17713,-0.0631969 -0.25737,-0.126386 -0.0584173,-0.046 -0.116843,-0.0920079 -0.158626,-0.0920079 -0.0417835,0 -0.100209,0.0460079 -0.158626,0.0920079 -0.0802402,0.063189 -0.160496,0.126386 -0.25737,0.126386 -0.0968819,0 -0.17713,-0.0631969 -0.257374,-0.12639 -0.0584173,-0.046 -0.116839,-0.0920079 -0.158626,-0.0920079 -0.0417874,0 -0.100213,0.0460079 -0.15863,0.0920079 -0.0802402,0.0631969 -0.1605,0.12639 -0.257374,0.12639 -0.096878,0 -0.17713,-0.0631969 -0.257374,-0.126386 -0.0584173,-0.046 -0.116839,-0.0920079 -0.158626,-0.0920079 -0.0417835,0 -0.100209,0.0460079 -0.158626,0.0920079 -0.0802441,0.063189 -0.160496,0.126386 -0.257374,0.126386 -0.0441811,0 -0.08,-0.0358189 -0.08,-0.08 0,-0.0441811 0.0358189,-0.08 0.08,-0.08 0.0417874,0 0.100209,-0.0460079 0.158626,-0.0920079 0.0802441,-0.063189 0.160496,-0.126386 0.257374,-0.126386 0.096878,0 0.17713,0.0631969 0.257374,0.126386 0.0584173,0.046 0.116843,0.0920079 0.158626,0.0920079 0.0417874,0 0.100213,-0.0460079 0.158626,-0.0920118 0.0802441,-0.063189 0.1605,-0.126386 0.257378,-0.126386z"/>
  <path class="fil2" d="M5.11294 3.93264l-3.39921 0c-0.183492,0 -0.354327,-0.0523622 -0.494504,-0.141154 -0.0589449,0.0608583 -0.107118,0.129579 -0.141917,0.203858 -0.0411969,0.0879528 -0.0639724,0.184571 -0.0639724,0.286035 0,0.207366 0.0963307,0.396378 0.251528,0.533839 0.157819,0.139783 0.376287,0.226551 0.617295,0.226551l3.06235 0c0.241008,0 0.459476,-0.0867677 0.617295,-0.226551 0.155197,-0.137461 0.251528,-0.326472 0.251528,-0.533839 0,-0.101465 -0.0227756,-0.198083 -0.0639724,-0.286035 -0.0347992,-0.0742795 -0.0829724,-0.143 -0.141917,-0.203858 -0.140177,0.0887913 -0.311012,0.141154 -0.494504,0.141154zm-0.242957 0.205748c0,-0.0441811 0.0358189,-0.08 0.08,-0.08 0.0441811,0 0.08,0.0358189 0.08,0.08 0,0.0441811 -0.0358189,0.08 -0.08,0.08 -0.0441811,0 -0.08,-0.0358189 -0.08,-0.08zm0.439043 0c0,-0.0441811 0.0358189,-0.08 0.08,-0.08 0.0441811,0 0.08,0.0358189 0.08,0.08 0,0.0441811 -0.0358189,0.08 -0.08,0.08 -0.0441811,0 -0.08,-0.0358189 -0.08,-0.08zm-0.798087 -0.08c0.0441811,0 0.08,0.0358189 0.08,0.08 0,0.0441811 -0.0358189,0.08 -0.08,0.08 -0.0441811,0 -0.08,-0.0358189 -0.08,-0.08 0,-0.0441811 0.0358189,-0.08 0.08,-0.08zm-0.439043 0c0.0441811,0 0.08,0.0358189 0.08,0.08 0,0.0441811 -0.0358189,0.08 -0.08,0.08 -0.0441811,0 -0.08,-0.0358189 -0.08,-0.08 0,-0.0441811 0.0358189,-0.08 0.08,-0.08zm-0.359043 0.08c0,0.0441811 -0.0358189,0.08 -0.08,0.08 -0.0441811,0 -0.08,-0.0358189 -0.08,-0.08 0,-0.0441811 0.0358189,-0.08 0.08,-0.08 0.0441811,0 0.08,0.0358189 0.08,0.08zm-0.439043 0c0,0.0441811 -0.0358189,0.08 -0.08,0.08 -0.0441811,0 -0.08,-0.0358189 -0.08,-0.08 0,-0.0441811 0.0358189,-0.08 0.08,-0.08 0.0441811,0 0.08,0.0358189 0.08,0.08zm-0.439043 0c0,0.0441811 -0.0358189,0.08 -0.08,0.08 -0.0441811,0 -0.08,-0.0358189 -0.08,-0.08 0,-0.0441811 0.0358189,-0.08 0.08,-0.08 0.0441811,0 0.08,0.0358189 0.08,0.08zm-1.61665 0.149425c0.0441811,0 0.08,0.0358189 0.08,0.08 0,0.0441811 -0.0358189,0.08 -0.08,0.08 -0.0441811,0 -0.08,-0.0358189 -0.08,-0.08 0,-0.0441811 0.0358189,-0.08 0.08,-0.08zm2.19522 0c0.0441811,0 0.08,0.0358189 0.08,0.08 0,0.0441811 -0.0358189,0.08 -0.08,0.08 -0.0441811,0 -0.08,-0.0358189 -0.08,-0.08 0,-0.0441811 0.0358189,-0.08 0.08,-0.08zm-0.658567 0.229425c0.0441811,0 0.08,0.0358189 0.08,0.08 0,0.0441811 -0.0358189,0.08 -0.08,0.08 -0.0441811,0 -0.08,-0.0358189 -0.08,-0.08 0,-0.0441811 0.0358189,-0.08 0.08,-0.08zm-0.359043 0.08c0,0.0441811 -0.0358189,0.08 -0.08,0.08 -0.0441811,0 -0.08,-0.0358189 -0.08,-0.08 0,-0.0441811 0.0358189,-0.08 0.08,-0.08 0.0441811,0 0.08,0.0358189 0.08,0.08zm-0.738563 0.149421c0.0441811,0 0.08,0.0358189 0.08,0.08 0,0.0441811 -0.0358189,0.08 -0.08,0.08 -0.0441811,0 -0.08,-0.0358189 -0.08,-0.08 0,-0.0441811 0.0358189,-0.08 0.08,-0.08zm3.51235 0c0.0441811,0 0.08,0.0358189 0.08,0.08 0,0.0441811 -0.0358189,0.08 -0.08,0.08 -0.0441811,0 -0.08,-0.0358189 -0.08,-0.08 0,-0.0441811 0.0358189,-0.08 0.08,-0.08zm0.359043 -0.378846c0,-0.0441811 0.0358189,-0.08 0.08,-0.08 0.0441811,0 0.08,0.0358189 0.08,0.08 0,0.0441811 -0.0358189,0.08 -0.08,0.08 -0.0441811,0 -0.08,-0.0358189 -0.08,-0.08zm-0.798087 -0.08c0.0441811,0 0.08,0.0358189 0.08,0.08 0,0.0441811 -0.0358189,0.08 -0.08,0.08 -0.0441811,0 -0.08,-0.0358189 -0.08,-0.08 0,-0.0441811 0.0358189,-0.08 0.08,-0.08zm-0.439043 0c0.0441811,0 0.08,0.0358189 0.08,0.08 0,0.0441811 -0.0358189,0.08 -0.08,0.08 -0.0441811,0 -0.08,-0.0358189 -0.08,-0.08 0,-0.0441811 0.0358189,-0.08 0.08,-0.08zm-0.439043 0c0.0441811,0 0.08,0.0358189 0.08,0.08 0,0.0441811 -0.0358189,0.08 -0.08,0.08 -0.0441811,0 -0.08,-0.0358189 -0.08,-0.08 0,-0.0441811 0.0358189,-0.08 0.08,-0.08zm-0.878087 0c0.0441811,0 0.08,0.0358189 0.08,0.08 0,0.0441811 -0.0358189,0.08 -0.08,0.08 -0.0441811,0 -0.08,-0.0358189 -0.08,-0.08 0,-0.0441811 0.0358189,-0.08 0.08,-0.08zm-0.439043 0c0.0441811,0 0.08,0.0358189 0.08,0.08 0,0.0441811 -0.0358189,0.08 -0.08,0.08 -0.0441811,0 -0.08,-0.0358189 -0.08,-0.08 0,-0.0441811 0.0358189,-0.08 0.08,-0.08zm-0.439043 0c0.0441811,0 0.08,0.0358189 0.08,0.08 0,0.0441811 -0.0358189,0.08 -0.08,0.08 -0.0441811,0 -0.08,-0.0358189 -0.08,-0.08 0,-0.0441811 0.0358189,-0.08 0.08,-0.08zm-0.439043 0c0.0441811,0 0.08,0.0358189 0.08,0.08 0,0.0441811 -0.0358189,0.08 -0.08,0.08 -0.0441811,0 -0.08,-0.0358189 -0.08,-0.08 0,-0.0441811 0.0358189,-0.08 0.08,-0.08zm0.658563 -0.229425c0.0441811,0 0.08,0.0358189 0.08,0.08 0,0.0441811 -0.0358189,0.08 -0.08,0.08 -0.0441811,0 -0.08,-0.0358189 -0.08,-0.08 0,-0.0441811 0.0358189,-0.08 0.08,-0.08zm-0.439043 0c0.0441811,0 0.08,0.0358189 0.08,0.08 0,0.0441811 -0.0358189,0.08 -0.08,0.08 -0.0441811,0 -0.08,-0.0358189 -0.08,-0.08 0,-0.0441811 0.0358189,-0.08 0.08,-0.08zm-0.439043 0c0.0441811,0 0.08,0.0358189 0.08,0.08 0,0.0441811 -0.0358189,0.08 -0.08,0.08 -0.0441811,0 -0.08,-0.0358189 -0.08,-0.08 0,-0.0441811 0.0358189,-0.08 0.08,-0.08zm3.29283 0.688272c0.0441811,0 0.08,0.0358189 0.08,0.08 0,0.0441811 -0.0358189,0.08 -0.08,0.08 -0.0441811,0 -0.08,-0.0358189 -0.08,-0.08 0,-0.0441811 0.0358189,-0.08 0.08,-0.08zm-0.439043 0c0.0441811,0 0.08,0.0358189 0.08,0.08 0,0.0441811 -0.0358189,0.08 -0.08,0.08 -0.0441811,0 -0.08,-0.0358189 -0.08,-0.08 0,-0.0441811 0.0358189,-0.08 0.08,-0.08zm-0.219524 -0.229421c0.0441811,0 0.08,0.0358189 0.08,0.08 0,0.0441811 -0.0358189,0.08 -0.08,0.08 -0.0441811,0 -0.08,-0.0358189 -0.08,-0.08 0,-0.0441811 0.0358189,-0.08 0.08,-0.08zm-0.21952 0.229421c0.0441811,0 0.08,0.0358189 0.08,0.08 0,0.0441811 -0.0358189,0.08 -0.08,0.08 -0.0441811,0 -0.08,-0.0358189 -0.08,-0.08 0,-0.0441811 0.0358189,-0.08 0.08,-0.08zm-0.139524 -0.149421c0,0.0441811 -0.0358189,0.08 -0.08,0.08 -0.0441811,0 -0.08,-0.0358189 -0.08,-0.08 0,-0.0441811 0.0358189,-0.08 0.08,-0.08 0.0441811,0 0.08,0.0358189 0.08,0.08zm-0.29952 0.149421c0.0441811,0 0.08,0.0358189 0.08,0.08 0,0.0441811 -0.0358189,0.08 -0.08,0.08 -0.0441811,0 -0.08,-0.0358189 -0.08,-0.08 0,-0.0441811 0.0358189,-0.08 0.08,-0.08zm-0.439043 0c0.0441811,0 0.08,0.0358189 0.08,0.08 0,0.0441811 -0.0358189,0.08 -0.08,0.08 -0.0441811,0 -0.08,-0.0358189 -0.08,-0.08 0,-0.0441811 0.0358189,-0.08 0.08,-0.08zm0.21952 -0.229421c0.0441811,0 0.08,0.0358189 0.08,0.08 0,0.0441811 -0.0358189,0.08 -0.08,0.08 -0.0441811,0 -0.08,-0.0358189 -0.08,-0.08 0,-0.0441811 0.0358189,-0.08 0.08,-0.08zm-0.658563 0.229421c0.0441811,0 0.08,0.0358189 0.08,0.08 0,0.0441811 -0.0358189,0.08 -0.08,0.08 -0.0441811,0 -0.08,-0.0358189 -0.08,-0.08 0,-0.0441811 0.0358189,-0.08 0.08,-0.08zm-0.439043 0c0.0441811,0 0.08,0.0358189 0.08,0.08 0,0.0441811 -0.0358189,0.08 -0.08,0.08 -0.0441811,0 -0.08,-0.0358189 -0.08,-0.08 0,-0.0441811 0.0358189,-0.08 0.08,-0.08zm2.41474 -0.229421c0.0441811,0 0.08,0.0358189 0.08,0.08 0,0.0441811 -0.0358189,0.08 -0.08,0.08 -0.0441811,0 -0.08,-0.0358189 -0.08,-0.08 0,-0.0441811 0.0358189,-0.08 0.08,-0.08zm-2.63426 0c0.0441811,0 0.08,0.0358189 0.08,0.08 0,0.0441811 -0.0358189,0.08 -0.08,0.08 -0.0441811,0 -0.08,-0.0358189 -0.08,-0.08 0,-0.0441811 0.0358189,-0.08 0.08,-0.08zm3.0733 0c0.0441811,0 0.08,0.0358189 0.08,0.08 0,0.0441811 -0.0358189,0.08 -0.08,0.08 -0.0441811,0 -0.08,-0.0358189 -0.08,-0.08 0,-0.0441811 0.0358189,-0.08 0.08,-0.08zm0.219524 -0.229425c0.0441811,0 0.08,0.0358189 0.08,0.08 0,0.0441811 -0.0358189,0.08 -0.08,0.08 -0.0441811,0 -0.08,-0.0358189 -0.08,-0.08 0,-0.0441811 0.0358189,-0.08 0.08,-0.08zm0.21952 0.229425c0.0441811,0 0.08,0.0358189 0.08,0.08 0,0.0441811 -0.0358189,0.08 -0.08,0.08 -0.0441811,0 -0.08,-0.0358189 -0.08,-0.08 0,-0.0441811 0.0358189,-0.08 0.08,-0.08zm-3.95139 0c0.0441811,0 0.08,0.0358189 0.08,0.08 0,0.0441811 -0.0358189,0.08 -0.08,0.08 -0.0441811,0 -0.08,-0.0358189 -0.08,-0.08 0,-0.0441811 0.0358189,-0.08 0.08,-0.08z"/>
 </g>
 <rect class="fil4" width="6.82666" height="6.82666"/>
</svg>
