<?xml version="1.0" encoding="UTF-8"?>
<!DOCTYPE svg PUBLIC "-//W3C//DTD SVG 1.1//EN" "http://www.w3.org/Graphics/SVG/1.1/DTD/svg11.dtd">
<!-- Creator: CorelDRAW -->
<svg xmlns="http://www.w3.org/2000/svg" xml:space="preserve" width="6.82666in" height="6.82666in" style="shape-rendering:geometricPrecision; text-rendering:geometricPrecision; image-rendering:optimizeQuality; fill-rule:evenodd; clip-rule:evenodd"
viewBox="0 0 6.82666 6.82666"
 xmlns:xlink="http://www.w3.org/1999/xlink">
 <defs>
  <style type="text/css">
   <![CDATA[
    .fil4 {fill:none}
    .fil1 {fill:#AED581}
    .fil2 {fill:#EBE5DF}
    .fil3 {fill:#F19A7B}
    .fil0 {fill:#333333;fill-rule:nonzero}
   ]]>
  </style>
 </defs>
 <g id="Layer_x0020_1">
  <metadata id="CorelCorpID_0Corel-Layer"/>
  <g id="_630870080">
   <path id="_630870584" class="fil0" d="M5.74611 3.05993c0,-0.0441811 -0.0358189,-0.08 -0.08,-0.08 -0.0441811,0 -0.08,0.0358189 -0.08,0.08l0 0.694823c0,0.44624 -0.182614,0.85198 -0.476819,1.14618 -0.294201,0.294205 -0.699941,0.476819 -1.14618,0.476819l-1.09956 0c-0.44624,0 -0.85198,-0.182614 -1.14618,-0.476819 -0.294205,-0.294201 -0.476819,-0.699941 -0.476819,-1.14618l0 -0.694823c0,-0.0441811 -0.0358189,-0.08 -0.08,-0.08 -0.0441811,0 -0.08,0.0358189 -0.08,0.08l0 0.694823c0,0.490409 0.200563,0.936181 0.523693,1.25931 0.323126,0.32313 0.768898,0.523693 1.25931,0.523693l1.09956 0c0.490409,0 0.936181,-0.200563 1.25931,-0.523693 0.32313,-0.323126 0.523693,-0.768898 0.523693,-1.25931l0 -0.694823z"/>
   <path id="_630870464" class="fil0" d="M4.41382 5.41697c0,-0.0441811 -0.0358189,-0.08 -0.08,-0.08 -0.0441811,0 -0.08,0.0358189 -0.08,0.08l0 0.115602c0,0.077122 -0.0316142,0.147299 -0.0825354,0.19822 -0.0509213,0.0509213 -0.121098,0.0825354 -0.19822,0.0825354l-1.11947 0c-0.077122,0 -0.147299,-0.0316142 -0.19822,-0.0825354 -0.0509213,-0.0509213 -0.0825354,-0.121098 -0.0825354,-0.19822l0 -0.115799c0,-0.0441811 -0.0358189,-0.08 -0.08,-0.08 -0.0441811,0 -0.08,0.0358189 -0.08,0.08l0 0.115799c0,0.121291 0.0495669,0.231504 0.129409,0.311346 0.0798425,0.0798425 0.190055,0.129409 0.311346,0.129409l1.11947 0c0.121291,0 0.231504,-0.0495669 0.311346,-0.129409 0.0798425,-0.0798425 0.129409,-0.190055 0.129409,-0.311346l0 -0.115602z"/>
   <path id="_630870368" class="fil0" d="M5.00403 2.7045c-0.0434921,-0.00724803 -0.0846299,0.0221339 -0.091878,0.065626 -0.00724803,0.0434921 0.0221339,0.0846299 0.065626,0.091878 0.206776,0.0348976 0.372181,0.0762283 0.48328,0.121752 0.0805433,0.0330039 0.125055,0.0592598 0.125055,0.0761772 0,0.0621575 -0.226717,0.132248 -0.59326,0.195303 -0.403185,0.0693622 -0.961555,0.112272 -1.57952,0.112272 -0.617965,0 -1.17633,-0.0429094 -1.57952,-0.112272 -0.366543,-0.0630551 -0.59326,-0.133146 -0.59326,-0.195303 0,-0.0621575 0.226717,-0.132248 0.593256,-0.195307 0.403185,-0.0693583 0.961555,-0.112268 1.57952,-0.112268 0.233575,0 0.456268,0.00594488 0.66337,0.0169803 0.215059,0.0114606 0.417409,0.0285472 0.601394,0.0502913 0.0438346,0.00517323 0.0835748,-0.0261654 0.088748,-0.07 0.00517323,-0.0438346 -0.0261654,-0.0835748 -0.07,-0.088748 -0.18463,-0.0218189 -0.390484,-0.0391181 -0.612016,-0.0509213 -0.214689,-0.0114409 -0.440323,-0.0176024 -0.671496,-0.0176024 -0.626213,0 -1.19425,0.0438622 -1.6064,0.114764 -0.448791,0.0772126 -0.726382,0.200917 -0.726382,0.352811 0,0.151894 0.277591,0.275602 0.726386,0.352807 0.41215,0.0709055 0.980189,0.114768 1.60639,0.114768 0.626205,0 1.19424,-0.0438622 1.60639,-0.114768 0.448795,-0.0772047 0.726386,-0.200913 0.726386,-0.352807 0,-0.0893858 -0.0798819,-0.164445 -0.224433,-0.223681 -0.122709,-0.0502795 -0.299807,-0.0949843 -0.51765,-0.131752z"/>
   <path id="_630870272" class="fil0" d="M4.34602 3.37706c-0.0163937,0.0409016 0.00347244,0.0873583 0.044374,0.103752 0.0409016,0.0163937 0.0873583,-0.00347244 0.103752,-0.044374l0.70311 -1.74991 0.190315 0 -0.731496 1.65584c-0.0177756,0.0403858 0.000551181,0.0875394 0.040937,0.105315 0.0403858,0.0177756 0.0875394,-0.000551181 0.105315,-0.040937l0.779256 -1.76395c0.00554724,-0.0108858 0.00867717,-0.0232126 0.00867717,-0.0362677 0,-0.0441811 -0.0358189,-0.08 -0.08,-0.08l-0.365224 0c-0.0322913,-0.000649606 -0.0631024,0.0184291 -0.0758583,0.0501732l0.0742323 0.0298268 -0.074063 -0.029689 -0.723327 1.80022z"/>
   <g>
    <path id="_630870224" class="fil0" d="M3.35919 1.95822c-0.0226063,0.0377953 -0.0102953,0.0867677 0.0275,0.109374 0.0377953,0.0226063 0.0867677,0.0102953 0.109374,-0.0275 0.132732,-0.221768 0.0617283,-0.404571 -0.00881496,-0.586165 -0.06,-0.154461 -0.119579,-0.30785 0.00412992,-0.472791 0.0264016,-0.0352087 0.0192677,-0.0851614 -0.0159409,-0.111563 -0.0352087,-0.0264016 -0.0851614,-0.0192677 -0.111563,0.0159409 -0.17689,0.23585 -0.101402,0.430197 -0.025374,0.625917 0.0565079,0.145469 0.113386,0.291906 0.020689,0.446787z"/>
    <g>
     <path id="_630870176" class="fil0" d="M2.95082 2.24384c-0.0226063,0.0377953 -0.0102953,0.0867677 0.0275,0.109374 0.0377953,0.0226063 0.0867677,0.0102953 0.109374,-0.0275 0.132732,-0.221768 0.0617283,-0.404571 -0.00881496,-0.586165 -0.06,-0.154461 -0.119575,-0.30785 0.00412992,-0.472795 0.0264016,-0.0352087 0.0192677,-0.0851614 -0.0159409,-0.111563 -0.0352087,-0.0264016 -0.0851614,-0.0192677 -0.111563,0.0159409 -0.17689,0.235854 -0.101402,0.430201 -0.025374,0.625921 0.0565079,0.145469 0.113386,0.291906 0.020689,0.446787z"/>
     <path id="_630870032" class="fil0" d="M3.76756 2.24384c-0.0226063,0.0377953 -0.0102953,0.0867677 0.0275,0.109374 0.0377953,0.0226063 0.0867677,0.0102953 0.109374,-0.0275 0.132732,-0.221768 0.0617283,-0.404571 -0.00881496,-0.586165 -0.06,-0.154461 -0.119579,-0.30785 0.00412992,-0.472795 0.0264016,-0.0352087 0.0192677,-0.0851614 -0.0159409,-0.111563 -0.0352087,-0.0264016 -0.0851614,-0.0192677 -0.111563,0.0159409 -0.17689,0.235854 -0.101402,0.430201 -0.025374,0.625921 0.0565079,0.145469 0.113386,0.291906 0.020689,0.446787z"/>
    </g>
   </g>
  </g>
  <path class="fil1" d="M4.7376 3.45402c-0.373413,0.046248 -0.83078,0.0734882 -1.32427,0.0734882 -0.626205,0 -1.19424,-0.0438622 -1.60639,-0.114768 -0.246146,-0.0423425 -0.440791,-0.0986772 -0.566386,-0.165972l0 0.507988c0,0.44624 0.182614,0.85198 0.476819,1.14618 0.213594,0.213598 0.48598,0.368374 0.789972,0.437154 0.00206693,0.000377953 0.0041063,0.000838583 0.00611417,0.00137008 0.112843,0.0250709 0.23,0.0382953 0.350094,0.0382953l1.09956 0c0.44624,0 0.85198,-0.182614 1.14618,-0.476819 0.294205,-0.294201 0.476819,-0.699941 0.476819,-1.14618l0 -0.507988c-0.125594,0.0672953 -0.32024,0.12363 -0.566386,0.165972 -0.0865591,0.0148898 -0.179996,0.0285906 -0.279406,0.0409409 -0.000901575,0.000125984 -0.00180709,0.000240157 -0.00271654,0.000338583z"/>
  <path class="fil2" d="M3.41333 3.3675c0.340457,0 0.662827,-0.0130236 0.951122,-0.0363189l0.210173 -0.523091c-0.155469,-0.016315 -0.322469,-0.0294094 -0.497925,-0.0387598 -0.207102,-0.0110354 -0.429795,-0.0169803 -0.66337,-0.0169803 -0.617969,0 -1.17634,0.0429094 -1.57952,0.112268 -0.366539,0.0630591 -0.593256,0.13315 -0.593256,0.195307 0,0.0621575 0.226717,0.132248 0.59326,0.195303 0.403185,0.0693622 0.961555,0.112272 1.57952,0.112272z"/>
  <path class="fil3" d="M5.19726 1.68652l-0.654327 1.6285c0.0448898,-0.00452362 0.0887638,-0.00930709 0.131559,-0.0143425l0.713083 -1.61416 -0.190315 0z"/>
  <path class="fil1" d="M4.25382 5.51391c-0.0946614,0.015685 -0.19178,0.0238465 -0.290713,0.0238465l-1.09956 0c-0.0989331,0 -0.196051,-0.00816142 -0.290713,-0.0238465l0 0.0186693c0,0.077122 0.0316142,0.147299 0.0825354,0.19822 0.0509213,0.0509213 0.121098,0.0825354 0.19822,0.0825354l1.11947 0c0.077122,0 0.147299,-0.0316142 0.19822,-0.0825354 0.0509213,-0.0509213 0.0825354,-0.121098 0.0825354,-0.19822l0 -0.0186693z"/>
  <path class="fil2" d="M4.99285 3.25523c0.366543,-0.0630551 0.59326,-0.133146 0.59326,-0.195303 0,-0.0169173 -0.0445118,-0.0431732 -0.125055,-0.0761772 -0.100039,-0.0409921 -0.24411,-0.0785827 -0.422768,-0.111142l-0.178346 0.403705c0.0459606,-0.00671654 0.0903031,-0.013752 0.132909,-0.0210827z"/>
 </g>
 <rect class="fil4" width="6.82666" height="6.82666"/>
</svg>
