<?xml version="1.0" encoding="UTF-8"?>
<!DOCTYPE svg PUBLIC "-//W3C//DTD SVG 1.1//EN" "http://www.w3.org/Graphics/SVG/1.1/DTD/svg11.dtd">
<!-- Creator: CorelDRAW -->
<svg xmlns="http://www.w3.org/2000/svg" xml:space="preserve" width="6.82666in" height="6.82666in" style="shape-rendering:geometricPrecision; text-rendering:geometricPrecision; image-rendering:optimizeQuality; fill-rule:evenodd; clip-rule:evenodd"
viewBox="0 0 6.82666 6.82666"
 xmlns:xlink="http://www.w3.org/1999/xlink">
 <defs>
  <style type="text/css">
   <![CDATA[
    .fil4 {fill:none}
    .fil3 {fill:#333333}
    .fil2 {fill:#63CBE5}
    .fil0 {fill:#FECA5F}
    .fil1 {fill:#333333;fill-rule:nonzero}
   ]]>
  </style>
 </defs>
 <g id="Layer_x0020_1">
  <metadata id="CorelCorpID_0Corel-Layer"/>
  <path class="fil0" d="M4.83475 1.89587l-0.574697 -0.574693c-0.077248,0.0932835 -0.134933,0.203319 -0.166768,0.323819 -0.0215827,0.0817205 -0.0323386,0.184835 -0.0279961,0.285213 0.00336614,0.0779213 0.0157638,0.153079 0.0391929,0.213209 0.0149488,-0.00285827 0.0296614,-0.00576772 0.0441299,-0.00872835 0.254177,-0.0232913 0.432744,-0.0844882 0.583677,-0.183669l0.0579843 0c-0.00173228,0.0314567 -0.0139724,0.061689 -0.0358504,0.0905236 -0.00305906,0.00754331 -0.00733858,0.0147402 -0.0128622,0.0213071 -0.0985354,0.117213 -0.176693,0.208398 -0.25163,0.295827 -0.0436142,0.0508819 -0.0862087,0.100583 -0.127799,0.149433 0.0665118,0.0569409 0.14211,0.103854 0.224402,0.138366 0.0775079,0.0325039 0.160921,0.0538346 0.248217,0.0619764l0 -0.812583z"/>
  <path class="fil1" d="M4.74156 2.06285c0.028185,-0.0335118 0.0239961,-0.0834646 -0.00927165,-0.111831l-0.0237598 -0.00245276c-0.00328346,0.00280709 -0.00638583,0.00591339 -0.00925591,0.00932677 -0.0758819,0.0902598 -0.244827,0.196972 -0.330594,0.297035 -0.755343,0.881268 -1.21409,1.41649 -1.42263,3.26933 -0.000744094,0.00664173 -0.00136614,0.0128425 -0.00188976,0.0186299 -0.00442126,-4.72441e-005 -0.00917323,-7.48031e-005 -0.014311,-5.90551e-005 -0.0262008,7.87402e-005 -0.0547598,0.000216535 -0.0832362,0.000350394 -0.0306024,0.000141732 -0.061252,0.000287402 -0.0869055,0.000362205 -0.00403543,1.1811e-005 -0.00781102,3.93701e-005 -0.0113504,9.05512e-005 -0.000444882,-0.00477559 -0.000956693,-0.00981102 -0.00155512,-0.0151102 -0.209106,-1.8564 -0.669579,-2.39417 -1.42807,-3.27998 -0.0843386,-0.0985 -0.172244,-0.201157 -0.245413,-0.288197 -0.0283031,-0.0336535 -0.0785354,-0.0379882 -0.112189,-0.00968504 -0.0336535,0.0283031 -0.0379882,0.0785354 -0.00968504,0.112189 0.0972008,0.115622 0.173098,0.204256 0.246035,0.289441 0.738587,0.862563 1.18698,1.38622 1.39057,3.19373 0.0021378,0.0189764 0.00298819,0.0332165 0.0036378,0.0442008 0.00246457,0.0414685 0.00372835,0.0624764 0.0324409,0.0892087 0.0300079,0.0279449 0.0514961,0.0269094 0.0949764,0.0247953 0.0114724,-0.000555118 0.0261181,-0.00127165 0.0405984,-0.00131102 0.0273583,-7.87402e-005 0.0574685,-0.000224409 0.0875276,-0.000362205 0.0290709,-0.000137795 0.0580315,-0.000275591 0.0826142,-0.000350394 0.0156378,-4.33071e-005 0.0301614,0.000535433 0.0416496,0.000996063 0.087878,0.00352756 0.123949,-0.0279409 0.129539,-0.116587 0.000720472,-0.0114213 0.00165354,-0.0260945 0.00375984,-0.0448543 0.203035,-1.80391 0.649697,-2.32504 1.38514,-3.18308 0.074937,-0.0874291 0.153094,-0.178614 0.25163,-0.295827z"/>
  <path class="fil1" d="M3.02688 5.39716c-0.0415669,-0.00146457 -0.0764606,0.0310472 -0.0779252,0.0726142 -0.00146457,0.0415669 0.0310472,0.0764567 0.0726142,0.0779213 0.229138,0.00853937 0.42978,0.0335236 0.571965,0.0687559 0.108323,0.0268465 0.173516,0.0481811 0.173516,0.0587835 0,0.016063 -0.088374,0.0423819 -0.231252,0.071937 -0.174965,0.0362008 -0.418563,0.0585945 -0.689299,0.0585945 -0.270736,0 -0.514335,-0.0223937 -0.689299,-0.0585945 -0.142878,-0.0295551 -0.231252,-0.055874 -0.231252,-0.071937 0,-0.0105984 0.0651457,-0.0319173 0.173398,-0.0587559 0.142118,-0.0352283 0.342677,-0.0602165 0.57172,-0.0687677 0.041563,-0.00146457 0.0740748,-0.0363583 0.0726102,-0.0779213 -0.00146457,-0.0415669 -0.0363543,-0.0740787 -0.0779213,-0.0726142 -0.239953,0.00895669 -0.451343,0.0354528 -0.602421,0.0729016 -0.180118,0.0446535 -0.288508,0.11535 -0.288508,0.205157 0,0.0977559 0.134618,0.174496 0.352268,0.21952 0.185539,0.0383858 0.440008,0.0621339 0.719406,0.0621339 0.279398,0 0.533866,-0.0237441 0.719406,-0.0621339 0.21765,-0.0450236 0.352268,-0.121764 0.352268,-0.21952 0,-0.0898228 -0.108437,-0.160531 -0.288626,-0.205181 -0.151154,-0.0374528 -0.36263,-0.0639488 -0.602665,-0.0728937z"/>
  <path class="fil1" d="M2.8465 1.48199c0.460866,0 0.884311,0.0341811 1.21352,0.0909173l-0.0462677 0.153913c-0.316594,-0.0530118 -0.722972,-0.0848307 -1.16725,-0.0848307 -0.510217,0 -0.970461,0.0419606 -1.30212,0.109791 -0.297732,0.0608937 -0.48189,0.129528 -0.48189,0.191457 0,0.0619291 0.184157,0.130563 0.481894,0.191453 0.331654,0.0678307 0.791902,0.109791 1.30211,0.109791 0.510213,0 0.970457,-0.0419606 1.30211,-0.109791 0.283854,-0.0580512 0.458945,-0.108378 0.565791,-0.191945l0.0758701 0.00827559c-0.00799606,0.145102 -0.239492,0.264189 -0.609787,0.339921 -0.342976,0.0701496 -0.81474,0.113539 -1.33399,0.113539 -0.519244,0 -0.991016,-0.0433898 -1.33399,-0.113539 -0.376902,-0.0770827 -0.61002,-0.199079 -0.61002,-0.347705 0,-0.148626 0.233118,-0.270622 0.610016,-0.347709 0.342976,-0.0701496 0.81474,-0.113539 1.33399,-0.113539z"/>
  <path class="fil1" d="M3.96839 2.23126c0.0184646,0.0400394 0.0658976,0.0575276 0.105937,0.039063 0.0400394,-0.0184646 0.0575276,-0.0658976 0.039063,-0.105937 -0.0292323,-0.0631063 -0.0443268,-0.146906 -0.0480984,-0.234169 -0.00434252,-0.100378 0.00641339,-0.203492 0.0279961,-0.285213 0.0485827,-0.18389 0.157358,-0.343402 0.303996,-0.456213 0.14302,-0.110031 0.322445,-0.175457 0.517469,-0.175457 0.234567,0 0.446929,0.0950748 0.600638,0.24878 0.153705,0.153709 0.24878,0.366071 0.24878,0.600638 0,0.234567 -0.0950748,0.446929 -0.248783,0.600638 -0.153705,0.153709 -0.366067,0.248783 -0.600634,0.248783 -0.116433,0 -0.227327,-0.0233819 -0.328217,-0.065689 -0.10522,-0.044126 -0.1995,-0.108535 -0.277835,-0.188244 -0.0308898,-0.0314094 -0.0814016,-0.0318268 -0.112811,-0.000937008 -0.0314094,0.0308898 -0.0318268,0.0814016 -0.000937008,0.112811 0.0934921,0.0951299 0.205378,0.171736 0.329709,0.223874 0.120083,0.0503543 0.25189,0.078185 0.390091,0.078185 0.278736,0 0.531094,-0.112988 0.71376,-0.295657 0.182669,-0.182669 0.295657,-0.435028 0.295657,-0.713764 0,-0.278736 -0.112988,-0.531094 -0.295654,-0.713764 -0.182669,-0.182665 -0.435028,-0.295654 -0.713764,-0.295654 -0.231165,0 -0.444445,0.0780118 -0.614972,0.209205 -0.174008,0.133866 -0.303134,0.323319 -0.36087,0.541843 -0.0253583,0.0960118 -0.0380276,0.216331 -0.0329961,0.332709 0.00461024,0.106657 0.0241732,0.21148 0.0624764,0.294169z"/>
  <path class="fil1" d="M4.99475 0.933331c0,-0.0441811 -0.0358189,-0.08 -0.08,-0.08 -0.0441811,0 -0.08,0.0358189 -0.08,0.08l0 0.929417c0,0.0441811 0.0358189,0.08 0.08,0.08 0.0441811,0 0.08,-0.0358189 0.08,-0.08l0 -0.929417z"/>
  <path class="fil1" d="M5.51539 2.57651c0.0312362,0.0312362 0.0818898,0.0312362 0.113126,0 0.0312362,-0.0312362 0.0312362,-0.0818898 0,-0.113126l-0.657197 -0.657201c-0.0312362,-0.0312362 -0.0818898,-0.0312362 -0.113126,0 -0.0312362,0.0312362 -0.0312362,0.0818898 0,0.113126l0.657197 0.657201z"/>
  <path class="fil1" d="M4.83475 2.79217c0,0.0441811 0.0358189,0.08 0.08,0.08 0.0441811,0 0.08,-0.0358189 0.08,-0.08l0 -0.929421c0,-0.0441811 -0.0358189,-0.08 -0.08,-0.08 -0.0441811,0 -0.08,0.0358189 -0.08,0.08l0 0.929421z"/>
  <path class="fil1" d="M4.31411 1.14899c-0.0312362,-0.0312362 -0.0818898,-0.0312362 -0.113126,0 -0.0312362,0.0312362 -0.0312362,0.0818898 0,0.113126l0.657201 0.657197c0.0312362,0.0312362 0.0818898,0.0312362 0.113126,0 0.0312362,-0.0312362 0.0312362,-0.0818898 0,-0.113126l-0.657201 -0.657197z"/>
  <path class="fil2" d="M3.91733 1.71173c-0.300846,-0.0439016 -0.670453,-0.0697402 -1.07083,-0.0697402 -0.510217,0 -0.970461,0.0419606 -1.30212,0.109791 -0.297732,0.0608937 -0.48189,0.129528 -0.48189,0.191457 0,0.00236614 0.000267717,0.00474016 0.00080315,0.00712598 0.00356693,0.00297638 0.0069252,0.00630315 0.0100197,0.00998425 0.00972441,0.0115669 0.0197087,0.0234094 0.0299094,0.0354843 0.0697717,0.0466929 0.225736,0.0948031 0.441161,0.138858 0.331654,0.0678307 0.791902,0.109791 1.30211,0.109791 0.41265,0 0.79261,-0.0274488 1.0983,-0.0738307 -0.0229528,-0.0706181 -0.0353425,-0.151551 -0.0388858,-0.233567 -0.0032874,-0.076063 0.000984252,-0.153811 0.0114173,-0.225354z"/>
  <path class="fil2" d="M4.18049 2.29094c-0.342976,0.0701496 -0.81474,0.113539 -1.33399,0.113539 -0.519244,0 -0.991016,-0.0433898 -1.33399,-0.113539 -0.071878,-0.0147008 -0.138528,-0.0310354 -0.199331,-0.048874 0.00185039,0.00216142 0.00370079,0.0043189 0.00554724,0.00647638 0.758492,0.885807 1.21896,1.42357 1.42807,3.27998 0.000598425,0.00529921 0.00111024,0.0103346 0.00155512,0.0151102l0.0113504 -9.05512e-005 0.0869055 -0.000362205 0.0832362 -0.000350394c0.0051378,-1.5748e-005 0.00988976,1.1811e-005 0.014311,5.90551e-005 0.000523622,-0.0057874 0.00114567,-0.0119882 0.00188976,-0.0186299 0.191197,-1.69872 0.592705,-2.28991 1.24028,-3.05564 0.00278346,-0.00399213 0.00597244,-0.00778346 0.00956693,-0.0113189 2.75591e-005,-2.3622e-005 5.11811e-005,-5.11811e-005 7.87402e-005,-7.48031e-005 0.055752,-0.0658307 0.113315,-0.132992 0.172713,-0.202291 0.00365748,-0.00426772 0.0073189,-0.00853937 0.0109882,-0.0128189 -0.0607598,0.0178228 -0.127362,0.0341417 -0.199181,0.0488307z"/>
  <path class="fil0" d="M4.37317 1.20804l0.461583 0.461579 0 -0.652591c-0.163976,0.0152559 -0.314236,0.0769488 -0.437469,0.171756 -0.00815748,0.00627559 -0.0161969,0.0126929 -0.0241142,0.0192559z"/>
  <path class="fil0" d="M4.99475 1.01705l0 0.652575 0.461421 -0.461421c-0.127717,-0.105756 -0.286902,-0.17485 -0.461421,-0.191154z"/>
  <path class="fil0" d="M5.5693 1.32133l-0.461421 0.461421 0.652575 0c-0.0163031,-0.17452 -0.0853976,-0.333705 -0.191154,-0.461421z"/>
  <path class="fil0" d="M5.76045 1.94275l-0.652575 0 0.461417 0.461421c0.10576,-0.127713 0.174854,-0.286902 0.191157,-0.461421z"/>
  <path class="fil0" d="M5.45617 2.5173l-0.461417 -0.461421 0 0.652579c0.17452,-0.0163031 0.333705,-0.0853976 0.461417,-0.191157z"/>
  <path class="fil1" d="M5.62851 1.26211c0.0312362,-0.0312362 0.0312362,-0.0818898 0,-0.113126 -0.0312362,-0.0312362 -0.0818898,-0.0312362 -0.113126,0l-1.31431 1.30247c-0.0312362,0.0312362 -0.0312362,0.0818898 0,0.113126 0.0312362,0.0312362 0.0818898,0.0312362 0.113126,0l1.31431 -1.30247z"/>
  <path class="fil1" d="M5.84417 1.94275c0.0441811,0 0.08,-0.0358189 0.08,-0.08 0,-0.0441811 -0.0358189,-0.08 -0.08,-0.08l-1.82942 0c-0.0441811,0 -0.08,0.0358189 -0.08,0.08 0,0.0441811 0.0358189,0.08 0.08,0.08l1.82942 0z"/>
  <path class="fil3" d="M1.31873 2.24855l-0.00554724 -0.00647638c0.00185039,0.00216142 0.00370079,0.0043189 0.00554724,0.00647638z"/>
  <path class="fil3" d="M1.97311 3.07046c-0.00331496,-0.0048937 -0.0066378,-0.00978346 -0.00997244,-0.0146614 0.00333465,0.00488189 0.00665748,0.00976772 0.00997244,0.0146614z"/>
  <path class="fil3" d="M1.97599 3.0747c-0.000484252,-0.000712598 -0.000964567,-0.00142913 -0.00144882,-0.00214173 0.000484252,0.000712598 0.000964567,0.00142913 0.00144882,0.00214173z"/>
  <path class="fil2" d="M3.59354 5.61645c-0.124913,-0.0309528 -0.294941,-0.0539961 -0.489772,-0.0649252 -0.00140551,0.014189 -0.0021378,0.0257323 -0.00272835,0.0350906 -0.00559055,0.0886457 -0.0416614,0.120114 -0.129539,0.116587 -0.0114882,-0.00046063 -0.0260118,-0.00103937 -0.0416496,-0.000996063l-0.0826142 0.000350394 -0.0875276 0.000362205c-0.0144803,3.93701e-005 -0.029126,0.000755906 -0.0405984,0.00131102 -0.0434803,0.00211417 -0.0649685,0.00314961 -0.0949764,-0.0247953 -0.0287126,-0.0267323 -0.0299764,-0.0477402 -0.0324409,-0.0892087 -0.000586614,-0.00988976 -0.00133071,-0.0224173 -0.00303543,-0.0386693 -0.194646,0.0109488 -0.364508,0.0339843 -0.489307,0.0649213 -0.108252,0.0268386 -0.173398,0.0481575 -0.173398,0.0587559 0,0.016063 0.088374,0.0423819 0.231252,0.071937 0.174965,0.0362008 0.418563,0.0585945 0.689299,0.0585945 0.270736,0 0.514335,-0.0223937 0.689299,-0.0585945 0.142878,-0.0295551 0.231252,-0.055874 0.231252,-0.071937 0,-0.0106024 -0.0651929,-0.031937 -0.173516,-0.0587835z"/>
 </g>
 <rect class="fil4" width="6.82666" height="6.82666"/>
</svg>
