<?xml version="1.0" encoding="UTF-8"?>
<!DOCTYPE svg PUBLIC "-//W3C//DTD SVG 1.1//EN" "http://www.w3.org/Graphics/SVG/1.1/DTD/svg11.dtd">
<!-- Creator: CorelDRAW -->
<svg xmlns="http://www.w3.org/2000/svg" xml:space="preserve" width="6.82666in" height="6.82666in" style="shape-rendering:geometricPrecision; text-rendering:geometricPrecision; image-rendering:optimizeQuality; fill-rule:evenodd; clip-rule:evenodd"
viewBox="0 0 6.82666 6.82666"
 xmlns:xlink="http://www.w3.org/1999/xlink">
 <defs>
  <style type="text/css">
   <![CDATA[
    .fil5 {fill:none}
    .fil3 {fill:#333333}
    .fil0 {fill:#E7E9EE}
    .fil1 {fill:#F45A52}
    .fil4 {fill:#FFD3B3}
    .fil2 {fill:#333333;fill-rule:nonzero}
   ]]>
  </style>
 </defs>
 <g id="Layer_x0020_1">
  <metadata id="CorelCorpID_0Corel-Layer"/>
  <path class="fil0" d="M1.7212 3.56802c0.020126,0.00423622 0.0377835,0.0161535 0.0492992,0.0329016 -0.0169724,-0.0102047 -0.0334213,-0.021189 -0.0492992,-0.0329016zm2.01928 -0.758866c-0.0944646,0.0654213 -0.20887,0.103756 -0.331957,0.103756 -0.123075,0 -0.237476,-0.0383346 -0.331933,-0.103752 -0.0671339,-0.0465 -0.124071,-0.106787 -0.166748,-0.176783 -0.042252,0.0475276 -0.092189,0.0881535 -0.147886,0.119941 -0.0853937,0.0487323 -0.183996,0.0765827 -0.288807,0.0765827 -0.161291,0 -0.307323,-0.0653858 -0.413028,-0.171091 -0.0889134,-0.0889134 -0.149299,-0.206362 -0.16624,-0.337421 -0.00320079,-0.024748 -0.00485039,-0.0499843 -0.00485039,-0.0756063 0,-0.0431299 0.00493701,-0.0859016 0.0142835,-0.127728 -0.100752,0.0654252 -0.19424,0.144291 -0.279114,0.239161 -0.0928031,0.103736 -0.174189,0.225421 -0.242177,0.368205 -0.0245039,0.0514409 -0.0436732,0.106583 -0.0567559,0.164693 -0.0127283,0.0565472 -0.0194528,0.114646 -0.0194528,0.1735 0,0.2175 0.0881732,0.414425 0.230717,0.556969 0.0294213,0.0294213 0.0611614,0.0565276 0.0949213,0.0810197 0.0530394,0.0384803 0.111067,0.0705079 0.172925,0.0949331 0.0895118,0.0353425 0.187051,0.0547598 0.289122,0.0547598 0.0353228,0 0.0702913,-0.00237402 0.104713,-0.007l-0.0101614 -0.0742126c-0.00586614,-0.0436614 0.0247756,-0.0838228 0.068437,-0.089689 0.0436614,-0.00586614 0.0838228,0.0247756 0.089689,0.068437l0.00793701 0.0579685c0.0538071,-0.0189252 0.105299,-0.0436063 0.15361,-0.0734961 0.0774685,-0.0479291 0.146575,-0.109165 0.20378,-0.181441 0.0547638,0.102768 0.131165,0.190945 0.222398,0.25939 0.0046378,0.00347638 0.00931102,0.00690551 0.0140197,0.0102835l-0.00222835 -0.0340039c-0.00275984,-0.0440079 0.0306811,-0.0819291 0.074689,-0.084689 0.0440079,-0.00275984 0.0819291,0.0306811 0.084689,0.074689l0.0088622 0.135134c0.0912205,0.0366417 0.190193,0.0565709 0.292654,0.0565709 0.102626,0 0.201646,-0.0199567 0.292843,-0.0565945l0.0088622 -0.13511c0.00275984,-0.0440079 0.0406811,-0.0774488 0.084689,-0.074689 0.0440079,0.00275984 0.0774488,0.0406811 0.074689,0.084689l-0.00222835 0.0339606c0.00748031,-0.0053622 0.0148701,-0.0108543 0.0221575,-0.0164724 0.0906732,-0.0698858 0.166142,-0.159508 0.219579,-0.263543 0.0564213,0.0738031 0.12511,0.136567 0.202441,0.185913 0.0472047,0.030122 0.0975669,0.0552323 0.15026,0.0747992l0.00730709 -0.0533583c0.00586614,-0.0436614 0.0460276,-0.0743031 0.089689,-0.068437 0.0436614,0.00586614 0.0743031,0.0460276 0.068437,0.089689l-0.00990551 0.0723386c0.0386102,0.00585827 0.0779449,0.00887402 0.11774,0.00887402 0.127102,0 0.247177,-0.0301102 0.353476,-0.0835827 0.0641457,-0.0322638 0.123276,-0.0730394 0.175909,-0.120835 0.00940945,-0.00854331 0.0186063,-0.017311 0.0275906,-0.0262953 0.142543,-0.142543 0.230717,-0.339469 0.230717,-0.556969 0,-0.216039 -0.059374,-0.397839 -0.160705,-0.550398 -0.105406,-0.158689 -0.255425,-0.283902 -0.430433,-0.381969 0.00521654,0.0366102 0.00792126,0.0747677 0.00792126,0.114535 0,0.0250118 -0.00157087,0.0496575 -0.00462598,0.0738425 -0.016622,0.131768 -0.0771535,0.249874 -0.166465,0.339185 -0.105705,0.105705 -0.251736,0.171091 -0.413031,0.171091 -0.105386,0 -0.204354,-0.0280197 -0.289866,-0.0770118 -0.0576772,-0.0330472 -0.10922,-0.0757992 -0.152461,-0.126059 -0.0430866,0.0727913 -0.101469,0.13539 -0.170693,0.183327zm0.919189 0.656945c0,-0.0582835 0.047248,-0.105531 0.105531,-0.105531 0.0582835,0 0.105531,0.047248 0.105531,0.105531 0,0.0582835 -0.047248,0.105531 -0.105531,0.105531 -0.0582835,0 -0.105531,-0.047248 -0.105531,-0.105531zm-1.58298 -0.422122c0,0.0582835 -0.047248,0.105531 -0.105531,0.105531 -0.0582874,0 -0.105535,-0.047248 -0.105535,-0.105531 0,-0.0582835 0.047248,-0.105531 0.105535,-0.105531 0.0582835,0 0.105531,0.047248 0.105531,0.105531zm-0.633193 0.105528c0.0582835,0 0.105531,0.047248 0.105531,0.105531 0,0.0582874 -0.047248,0.105535 -0.105531,0.105535 -0.0582835,0 -0.105531,-0.047248 -0.105531,-0.105535 0,-0.0582835 0.047248,-0.105531 0.105531,-0.105531zm2.0051 -0.105531c0,-0.0582835 0.047248,-0.105531 0.105531,-0.105531 0.0582835,0 0.105535,0.047248 0.105535,0.105531 0,0.0582835 -0.047252,0.105531 -0.105535,0.105531 -0.0582835,0 -0.105531,-0.047248 -0.105531,-0.105531zm0.527661 0c0,-0.0582835 0.047248,-0.105531 0.105531,-0.105531 0.0582835,0 0.105531,0.047248 0.105531,0.105531 0,0.0582835 -0.047248,0.105531 -0.105531,0.105531 -0.0582835,0 -0.105531,-0.047248 -0.105531,-0.105531zm-1.26638 0.105531c0.0582835,0 0.105531,0.047248 0.105531,0.105531 0,0.0582874 -0.047248,0.105535 -0.105531,0.105535 -0.0582835,0 -0.105531,-0.047248 -0.105531,-0.105535 0,-0.0582835 0.047248,-0.105531 0.105531,-0.105531zm-0.527661 0.211067c0.0582835,0 0.105531,0.047248 0.105531,0.105531 0,0.0582835 -0.047248,0.105531 -0.105531,0.105531 -0.0582835,0 -0.105531,-0.047248 -0.105531,-0.105531 0,-0.0582835 0.047248,-0.105531 0.105531,-0.105531zm-1.26638 -0.105531c0.0582835,0 0.105531,0.047248 0.105531,0.105531 0,0.0582835 -0.047248,0.105531 -0.105531,0.105531 -0.0582835,0 -0.105531,-0.047248 -0.105531,-0.105531 0,-0.0582835 0.047248,-0.105531 0.105531,-0.105531zm0.105528 -0.42213c0.0582835,0 0.105531,0.047248 0.105531,0.105531 0,0.0582835 -0.047248,0.105531 -0.105531,0.105531 -0.0582835,0 -0.105535,-0.047248 -0.105535,-0.105531 0,-0.0582835 0.047252,-0.105531 0.105535,-0.105531z"/>
  <path class="fil1" d="M3.01874 1.42397c0.000102362,0.00140945 0.000165354,0.00281496 0.000188976,0.0042126 0,1.9685e-005 0,3.54331e-005 3.93701e-006,5.51181e-005 -7.08661e-005,-0.00142126 -0.000137795,-0.00284252 -0.000192913,-0.00426772zm0.394587 0.53915c0.153224,0 0.291949,-0.0621142 0.392366,-0.162528 0.0715197,-0.0715236 0.12361,-0.16248 0.147665,-0.264268 0.00972047,-0.041122 0.0148622,-0.0840079 0.0148622,-0.128098 0,-0.0106535 -0.000299213,-0.0212362 -0.000893701,-0.0317441 -0.00792913,-0.140583 -0.0682047,-0.267185 -0.161638,-0.360618 -0.100413,-0.100417 -0.239142,-0.162531 -0.392362,-0.162531 -0.15322,0 -0.291949,0.0621142 -0.392362,0.162531 -0.089874,0.0898701 -0.149067,0.210433 -0.160504,0.34461 -0.00134252,0.0157402 -0.00202756,0.0316654 -0.00202756,0.047752 0,0.0384606 0.00391339,0.0760039 0.0113622,0.11226 0.0222323,0.108189 0.0759567,0.204894 0.151165,0.280106 0.100417,0.100413 0.239142,0.162528 0.392366,0.162528z"/>
  <path class="fil2" d="M5.2664 3.61528c0.00551969,-0.0436614 -0.0254016,-0.0835433 -0.069063,-0.089063 -0.0436614,-0.00551969 -0.0835433,0.0254016 -0.089063,0.069063l-0.257335 2.03811c-0.405752,0.119949 -0.904839,0.179929 -1.40488,0.179929 -0.500098,0 -0.999236,-0.0599921 -1.40501,-0.179969l-0.257201 -1.99734c-0.00551969,-0.0436614 -0.0454016,-0.0745827 -0.089063,-0.069063 -0.0436614,0.00551969 -0.0745827,0.0454016 -0.069063,0.089063l0.262937 2.04187c0.00126772,0.0328543 0.0228543,0.0628543 0.0560197,0.073252l0.0239331 -0.0763346 -0.023752 0.076252c0.430094,0.13485 0.966169,0.202276 1.5012,0.202276 0.533047,0 1.06712,-0.0669331 1.4964,-0.200787 0.0312953,-0.00763386 0.0561496,-0.0338583 0.0604213,-0.0677205l-0.00030315 -3.93701e-005 0.263823 -2.0895z"/>
  <path class="fil2" d="M4.89205 2.10976c-0.0390039,-0.0205354 -0.0872795,-0.00556693 -0.107815,0.033437 -0.0205354,0.0390039 -0.00556693,0.0872795 0.033437,0.107815 0.168791,0.0891378 0.31252,0.203559 0.409343,0.349327 0.0843858,0.127047 0.133831,0.279614 0.133831,0.462272 0,0.173331 -0.0702598,0.33026 -0.183843,0.443843 -0.113583,0.113579 -0.270512,0.183839 -0.44385,0.183839 -0.122677,0 -0.239303,-0.0353661 -0.337906,-0.0982835 -0.0988583,-0.0630866 -0.180071,-0.153984 -0.231602,-0.264843l-0.0725 0.033437 0.0725472 -0.0337205c-0.018622,-0.040063 -0.0662047,-0.0574488 -0.106268,-0.0388268 -0.0244685,0.011374 -0.0404724,0.0335472 -0.0449882,0.0582165 -0.0367756,0.135051 -0.116567,0.249969 -0.222335,0.331492 -0.106906,0.0824016 -0.240646,0.130469 -0.383508,0.130469 -0.13989,0 -0.271185,-0.0460551 -0.377063,-0.125488 -0.106134,-0.079622 -0.187091,-0.192728 -0.225996,-0.326575l-0.076563 0.022189 0.0768189 -0.0223307c-0.0123307,-0.0424252 -0.0567244,-0.0668189 -0.0991496,-0.0544882 -0.023248,0.00675591 -0.0410787,0.0231378 -0.0504213,0.0435512 -0.0533504,0.105709 -0.133736,0.191882 -0.230236,0.251587 -0.0970827,0.060063 -0.210953,0.0936142 -0.330476,0.0936142 -0.173335,0 -0.330264,-0.0702598 -0.443843,-0.183839 -0.113583,-0.113583 -0.183843,-0.270512 -0.183843,-0.443843 0,-0.0483465 0.00520866,-0.0946772 0.0150748,-0.1385 0.0101654,-0.0451654 0.0255472,-0.0890394 0.0455118,-0.130945 0.061815,-0.129815 0.134535,-0.239028 0.216547,-0.330701 0.0816024,-0.0912126 0.173547,-0.166295 0.274039,-0.228071 0.037622,-0.023126 0.049378,-0.072378 0.026252,-0.11 -0.023126,-0.037622 -0.072378,-0.049378 -0.11,-0.026252 -0.112209,0.0689803 -0.215823,0.153874 -0.309039,0.258071 -0.0928031,0.103736 -0.174189,0.225421 -0.242177,0.368205 -0.0245039,0.0514409 -0.0436732,0.106583 -0.0567559,0.164693 -0.0127283,0.0565472 -0.0194528,0.114646 -0.0194528,0.1735 0,0.2175 0.0881732,0.414425 0.230717,0.556969 0.142539,0.142539 0.339465,0.230713 0.556969,0.230713 0.14911,0 0.291862,-0.0422874 0.414224,-0.117992 0.0774685,-0.0479291 0.146575,-0.109165 0.20378,-0.181441 0.0547638,0.102768 0.131165,0.190945 0.222398,0.25939 0.133295,0.100004 0.297917,0.157984 0.472685,0.157984 0.178689,0 0.346453,-0.0605039 0.481012,-0.164217 0.0906732,-0.0698858 0.166142,-0.159508 0.219579,-0.263543 0.0564213,0.0738031 0.12511,0.136567 0.202441,0.185913 0.124307,0.0793228 0.270516,0.123906 0.423528,0.123906 0.217508,0 0.414433,-0.0881732 0.556976,-0.230713 0.142543,-0.142543 0.230717,-0.339469 0.230717,-0.556969 0,-0.216039 -0.059374,-0.397839 -0.160705,-0.550398 -0.11289,-0.169961 -0.276961,-0.30152 -0.468091,-0.402453z"/>
  <path class="fil2" d="M3.02113 2.50234c0.031815,0.0709528 0.0826654,0.131634 0.146091,0.175559 0.0682874,0.0472913 0.151425,0.0750039 0.241311,0.0750039 0.0898976,0 0.173043,-0.0277126 0.241335,-0.0750079 0.0463937,-0.032126 0.0870669,-0.0725827 0.116465,-0.120728 0.0184882,-0.0302756 0.0420748,-0.0813228 0.0511339,-0.114445 0.00116929,-0.00640157 0.00311417,-0.0126378 0.00577953,-0.0185551 0.0076063,-0.0168976 0.0210906,-0.031248 0.0392126,-0.0396693 0.0333307,-0.0154921 0.0734291,-0.00730315 0.0946024,0.020622l0.00545276 0.00719291c0.016622,0.0285984 0.0353504,0.0662717 0.0550709,0.0917559 0.0340394,0.0439409 0.0766693,0.0811181 0.125437,0.109063 0.0619134,0.0354724 0.133772,0.0557598 0.210488,0.0557598 0.117126,0 0.223161,-0.0474724 0.299906,-0.124217 0.0767441,-0.0767441 0.124217,-0.182783 0.124217,-0.299902 0,-0.198169 -0.0860394,-0.345819 -0.218118,-0.45489 -0.157732,-0.130256 -0.380839,-0.208787 -0.606315,-0.253598 -0.0257008,0.108657 -0.0833071,0.204945 -0.162378,0.278398 -0.0991535,0.0921063 -0.231831,0.148433 -0.377484,0.148433 -0.148508,0 -0.283461,-0.0585118 -0.383087,-0.15376 -0.0799094,-0.0763976 -0.137043,-0.176453 -0.160161,-0.288921 -0.156728,0.0266693 -0.301642,0.0718228 -0.427858,0.146795 -0.143846,0.0854488 -0.264579,0.211315 -0.35228,0.395492 -0.013563,0.0284803 -0.0239803,0.0581102 -0.0308031,0.0884252 -0.00661417,0.0293858 -0.0101063,0.0606969 -0.0101063,0.093626 0,0.117118 0.0474724,0.223157 0.124217,0.299902 0.0767441,0.0767441 0.18278,0.124217 0.299902,0.124217 0.0766732,0 0.148366,-0.020122 0.210059,-0.0553307 0.0546535,-0.031189 0.101752,-0.0743189 0.137791,-0.125878 0.00251969,-0.00360236 0.00498819,-0.00725197 0.00739764,-0.0109409 0.00860236,-0.0131535 0.016122,-0.0260394 0.023122,-0.0400551 0.000681102,-0.0015 0.00140551,-0.00298031 0.00217323,-0.00442913 0.00977165,-0.0184606 0.0267283,-0.0330984 0.048374,-0.0393898 0.038374,-0.0111535 0.0783583,0.00774803 0.0947677,0.0428504 0.00173228,0.00370472 0.0210433,0.0593819 0.0242874,0.066622zm0.884827 -1.13689c0.273689,0.0458346 0.555976,0.136591 0.755429,0.301303 0.16728,0.138138 0.276244,0.325661 0.276244,0.578016 0,0.161287 -0.0653858,0.307323 -0.171091,0.413028 -0.105705,0.105705 -0.251736,0.171091 -0.413031,0.171091 -0.105386,0 -0.204354,-0.0280197 -0.289866,-0.0770118 -0.0576772,-0.0330472 -0.10922,-0.0757992 -0.152461,-0.126059 -0.0430866,0.0727913 -0.101469,0.13539 -0.170693,0.183327 -0.0944646,0.0654213 -0.20887,0.103756 -0.331957,0.103756 -0.123075,0 -0.237476,-0.0383346 -0.331933,-0.103752 -0.0671339,-0.0465 -0.124071,-0.106787 -0.166748,-0.176783 -0.042252,0.0475276 -0.092189,0.0881535 -0.147886,0.119941 -0.0853937,0.0487323 -0.183996,0.0765827 -0.288807,0.0765827 -0.161291,0 -0.307323,-0.0653858 -0.413028,-0.171091 -0.105705,-0.105705 -0.171091,-0.25174 -0.171091,-0.413028 0,-0.043437 0.00500787,-0.0865118 0.0144843,-0.128626 0.00974016,-0.0432559 0.0239409,-0.0841614 0.0420472,-0.122173 0.102421,-0.215094 0.244898,-0.362965 0.415406,-0.464248 0.16715,-0.0992874 0.360055,-0.152161 0.567697,-0.179173l-3.93701e-005 -0.00030315c0.043811,-0.00569291 0.0839488,0.0252087 0.0896417,0.0690197 0.000547244,0.00419685 0.000755906,0.00835827 0.000649606,0.0124606 0.00599606,0.10285 0.0513976,0.195154 0.121323,0.262004 0.070874,0.0677598 0.167063,0.109382 0.273087,0.109382 0.103957,0 0.19839,-0.0399606 0.268736,-0.105307 0.0710157,-0.0659685 0.117724,-0.157709 0.125181,-0.260268l0.079689 0.00562598 -0.0797874 -0.00580315c0.00320472,-0.044063 0.0415276,-0.077189 0.0855906,-0.0739843 0.0045315,0.000330709 0.00894094,0.00103543 0.0132126,0.0020748z"/>
  <path class="fil2" d="M3.41333 0.853331c0.15322,0 0.291949,0.0621142 0.392362,0.162531 0.100417,0.100413 0.162531,0.239142 0.162531,0.392362 0,0.15322 -0.0621142,0.291949 -0.162528,0.392366 -0.100417,0.100413 -0.239142,0.162528 -0.392366,0.162528 -0.153224,0 -0.291949,-0.0621142 -0.392366,-0.162528 -0.100413,-0.100417 -0.162528,-0.239146 -0.162528,-0.392366 0,-0.15322 0.0621142,-0.291949 0.162531,-0.392362 0.100413,-0.100417 0.239142,-0.162531 0.392362,-0.162531zm0.279236 0.275657c-0.0714528,-0.0714567 -0.170185,-0.115657 -0.279236,-0.115657 -0.109051,0 -0.207783,0.0442008 -0.279236,0.115657 -0.0714567,0.0714528 -0.115657,0.170185 -0.115657,0.279236 0,0.109051 0.0442008,0.207783 0.115654,0.27924 0.0714567,0.0714528 0.170185,0.115654 0.27924,0.115654 0.109055,0 0.207783,-0.0442008 0.27924,-0.115654 0.0714528,-0.0714567 0.115654,-0.170189 0.115654,-0.27924 0,-0.109051 -0.0442008,-0.207783 -0.115657,-0.279236z"/>
  <circle class="fil3" cx="4.44861" cy="2.19971" r="0.105533"/>
  <circle class="fil3" cx="3.92095" cy="1.98865" r="0.105533"/>
  <circle class="fil3" cx="3.39329" cy="2.41078" r="0.105533"/>
  <circle class="fil3" cx="2.83657" cy="2.01211" r="0.105533"/>
  <circle class="fil3" cx="2.37281" cy="2.28693" r="0.105533"/>
  <circle class="fil3" cx="4.7652" cy="3.46609" r="0.105533"/>
  <circle class="fil3" cx="5.0818" cy="3.04397" r="0.105533"/>
  <circle class="fil3" cx="4.55414" cy="3.04397" r="0.105533"/>
  <circle class="fil3" cx="3.70989" cy="3.25503" r="0.105533"/>
  <circle class="fil3" cx="3.18223" cy="3.4661" r="0.105533"/>
  <circle class="fil3" cx="2.97116" cy="3.04397" r="0.105533"/>
  <circle class="fil3" cx="2.4435" cy="3.25503" r="0.105533"/>
  <circle class="fil3" cx="2.02137" cy="2.93844" r="0.105533"/>
  <circle class="fil3" cx="1.91585" cy="3.36057" r="0.105533"/>
  <path class="fil2" d="M2.34618 3.74782c-0.00586614,-0.0436614 -0.0460276,-0.0743031 -0.089689,-0.068437 -0.0436614,0.00586614 -0.0743031,0.0460276 -0.068437,0.089689l0.28337 2.06932c0.00586614,0.0436614 0.0460276,0.0743031 0.089689,0.068437 0.0436614,-0.00586614 0.0743031,-0.0460276 0.068437,-0.089689l-0.28337 -2.06932z"/>
  <path class="fil2" d="M3.10507 3.77652c-0.00275984,-0.0440079 -0.0406811,-0.0774488 -0.084689,-0.074689 -0.0440079,0.00275984 -0.0774488,0.0406811 -0.074689,0.084689l0.138079 2.10545c0.00275984,0.0440079 0.0406811,0.0774488 0.084689,0.074689 0.0440079,-0.00275984 0.0774488,-0.0406811 0.074689,-0.084689l-0.138079 -2.10545z"/>
  <path class="fil2" d="M4.62531 3.76907c0.00586614,-0.0436614 -0.0247756,-0.0838228 -0.068437,-0.089689 -0.0436614,-0.00586614 -0.0838228,0.0247756 -0.089689,0.068437l-0.28337 2.06932c-0.00586614,0.0436614 0.0247756,0.0838228 0.068437,0.089689 0.0436614,0.00586614 0.0838228,-0.0247756 0.089689,-0.068437l0.28337 -2.06932z"/>
  <path class="fil2" d="M3.86767 3.78652c0.00275984,-0.0440079 -0.0306811,-0.0819291 -0.074689,-0.084689 -0.0440079,-0.00275984 -0.0819291,0.0306811 -0.084689,0.074689l-0.138079 2.10545c-0.00275984,0.0440079 0.0306811,0.0819291 0.074689,0.084689 0.0440079,0.00275984 0.0819291,-0.0306811 0.084689,-0.074689l0.138079 -2.10545z"/>
  <path class="fil0" d="M3.64986 2.6779c0.0463937,-0.032126 0.0870669,-0.0725827 0.116465,-0.120728 0.0184882,-0.0302756 0.0420748,-0.0813228 0.0511339,-0.114445 0.00116929,-0.00640157 0.00311417,-0.0126378 0.00577953,-0.0185551 0.0076063,-0.0168976 0.0210906,-0.031248 0.0392126,-0.0396693 0.0333307,-0.0154921 0.0734291,-0.00730315 0.0946024,0.020622l0.00545276 0.00719291c0.016622,0.0285984 0.0353504,0.0662717 0.0550709,0.0917559 0.0340394,0.0439409 0.0766693,0.0811181 0.125437,0.109063 0.0619134,0.0354724 0.133772,0.0557598 0.210488,0.0557598 0.117126,0 0.223161,-0.0474724 0.299906,-0.124217 0.0767441,-0.0767441 0.124217,-0.182783 0.124217,-0.299902 0,-0.198169 -0.0860394,-0.345819 -0.218118,-0.45489 -0.157693,-0.130224 -0.380724,-0.208748 -0.606146,-0.253563 -0.0223031,0.094374 -0.0687047,0.179437 -0.13235,0.248335 -0.00499213,0.00541732 -0.0100945,0.0107323 -0.015315,0.0159331 -0.0998189,0.100067 -0.237972,0.162528 -0.392366,0.162528 -0.139217,0 -0.266465,-0.0512756 -0.363886,-0.135969 -0.00980315,-0.00851181 -0.0193071,-0.0173661 -0.0284803,-0.0265591 -0.0750079,-0.0749134 -0.128831,-0.171402 -0.151165,-0.280106 -0.156618,0.0266772 -0.301433,0.0718189 -0.427575,0.146748 -0.143846,0.0854488 -0.264579,0.211315 -0.35228,0.395492 -0.013563,0.0284803 -0.0239803,0.0581102 -0.0308031,0.0884252 -0.00166929,0.00742126 -0.00314173,0.0149646 -0.00440945,0.022626 -0.000291339,0.00307874 -0.000759843,0.00613386 -0.00140551,0.00914961 -0.00282677,0.0198858 -0.00429134,0.0405276 -0.00429134,0.0618504 0,0.117118 0.0474724,0.223157 0.124217,0.299902 0.0767441,0.0767441 0.18278,0.124217 0.299902,0.124217 0.0766732,0 0.148366,-0.020122 0.210059,-0.0553307 0.0546535,-0.031189 0.101752,-0.0743189 0.137791,-0.125878 0.00251969,-0.00360236 0.00498819,-0.00725197 0.00739764,-0.0109409 0.00860236,-0.0131535 0.016122,-0.0260394 0.023122,-0.0400551 0.000681102,-0.0015 0.00140551,-0.00298031 0.00217323,-0.00442913 0.00977165,-0.0184606 0.0267283,-0.0330984 0.048374,-0.0393898 0.038374,-0.0111535 0.0783583,0.00774803 0.0947677,0.0428504 0.00173228,0.00370472 0.0210433,0.0593819 0.0242874,0.066622 0.031815,0.0709528 0.0826654,0.131634 0.146091,0.175559 0.0682874,0.0472913 0.151425,0.0750039 0.241311,0.0750039 0.0898976,0 0.173043,-0.0277126 0.241335,-0.0750079zm0.271087 -0.583717c-0.0582874,0 -0.105535,-0.047248 -0.105535,-0.105531 0,-0.0582835 0.047248,-0.105531 0.105535,-0.105531 0.0582835,0 0.105531,0.047248 0.105531,0.105531 0,0.0582835 -0.047248,0.105531 -0.105531,0.105531zm-1.08438 -0.187598c0.0582835,0 0.105535,0.047248 0.105535,0.105531 0,0.0582835 -0.047252,0.105531 -0.105535,0.105531 -0.0582835,0 -0.105531,-0.047248 -0.105531,-0.105531 0,-0.0582835 0.047248,-0.105531 0.105531,-0.105531zm-0.463764 0.274819c0.0582835,0 0.105531,0.047248 0.105531,0.105531 0,0.0582874 -0.047248,0.105535 -0.105531,0.105535 -0.0582835,0 -0.105531,-0.047248 -0.105531,-0.105535 0,-0.0582835 0.047248,-0.105531 0.105531,-0.105531zm1.02048 0.123846c0.0582835,0 0.105531,0.047248 0.105531,0.105531 0,0.0582835 -0.047248,0.105531 -0.105531,0.105531 -0.0582835,0 -0.105535,-0.047248 -0.105535,-0.105531 0,-0.0582835 0.047252,-0.105531 0.105535,-0.105531zm0.949783 -0.105535c0,-0.0582835 0.047248,-0.105535 0.105531,-0.105535 0.0582874,0 0.105535,0.047252 0.105535,0.105535 0,0.0582835 -0.047248,0.105531 -0.105535,0.105531 -0.0582835,0 -0.105531,-0.047248 -0.105531,-0.105531z"/>
  <path class="fil4" d="M3.86544 3.82048l-0.130252 1.98612c0.154563,-0.00722047 0.307303,-0.0202598 0.455425,-0.0391181l0.269264 -1.96631c-0.0526929,-0.0195669 -0.103055,-0.0446772 -0.15026,-0.0747992 -0.0773307,-0.0493465 -0.14602,-0.11211 -0.202441,-0.185913 -0.053437,0.104035 -0.128906,0.193657 -0.219579,0.263543 -0.0072874,0.00561811 -0.0146772,0.0111102 -0.0221575,0.0164724z"/>
  <path class="fil4" d="M4.61541 3.84141l-0.26052 1.90244c0.175386,-0.0282205 0.342409,-0.0650433 0.496047,-0.110461l0.235689 -1.86669c-0.106299,0.0534724 -0.226374,0.0835827 -0.353476,0.0835827 -0.0397953,0 -0.0791299,-0.00301575 -0.11774,-0.00887402z"/>
  <path class="fil4" d="M3.57481 5.812l0.124626 -1.90037c-0.0911969,0.0366378 -0.190217,0.0565945 -0.292843,0.0565945 -0.102461,0 -0.201433,-0.0199291 -0.292654,-0.0565709l0.124488 1.89821c0.0690276,0.00230315 0.138319,0.00345669 0.20763,0.00345669 0.0429449,0 0.0858819,-0.000440945 0.128752,-0.00132677z"/>
  <path class="fil4" d="M3.0779 5.8024l-0.129976 -1.98187c-0.00470866,-0.00337795 -0.00938189,-0.00680709 -0.0140197,-0.0102835 -0.0912323,-0.0684449 -0.167634,-0.156622 -0.222398,-0.25939 -0.0572047,0.0722756 -0.126311,0.133512 -0.20378,0.181441 -0.048311,0.0298898 -0.0998031,0.0545709 -0.15361,0.0734961l0.267146 1.95085c0.147937,0.0211969 0.301114,0.0364528 0.456638,0.0457598z"/>
  <path class="fil4" d="M2.45661 5.73017l-0.25839 -1.88689c-0.0344213,0.00462598 -0.0693898,0.007 -0.104713,0.007 -0.102071,0 -0.19961,-0.0194173 -0.289122,-0.0547598l0.236661 1.83783c0.129957,0.0384252 0.269488,0.0706969 0.415563,0.096815z"/>
 </g>
 <rect class="fil5" width="6.82666" height="6.82666"/>
</svg>
