<?xml version="1.0" encoding="UTF-8"?>
<!DOCTYPE svg PUBLIC "-//W3C//DTD SVG 1.1//EN" "http://www.w3.org/Graphics/SVG/1.1/DTD/svg11.dtd">
<!-- Creator: CorelDRAW -->
<svg xmlns="http://www.w3.org/2000/svg" xml:space="preserve" width="6.82666in" height="6.82666in" style="shape-rendering:geometricPrecision; text-rendering:geometricPrecision; image-rendering:optimizeQuality; fill-rule:evenodd; clip-rule:evenodd"
viewBox="0 0 6.82666 6.82666"
 xmlns:xlink="http://www.w3.org/1999/xlink">
 <defs>
  <style type="text/css">
   <![CDATA[
    .fil2 {fill:none}
    .fil1 {fill:#9DD5C0}
    .fil0 {fill:#333333;fill-rule:nonzero}
   ]]>
  </style>
 </defs>
 <g id="Layer_x0020_1">
  <metadata id="CorelCorpID_0Corel-Layer"/>
  <g id="_625019840">
   <g>
    <path id="_625032752" class="fil0" d="M1.20205 4.38126c0,-0.0441811 -0.0358189,-0.08 -0.08,-0.08 -0.0441811,0 -0.08,0.0358189 -0.08,0.08 0,0.207677 0.0270984,0.423909 0.150008,0.59322 0.124661,0.171728 0.341394,0.288732 0.715575,0.288732l3.01141 0c0.374181,0 0.590913,-0.117004 0.715575,-0.288732 0.122909,-0.169311 0.150008,-0.385543 0.150008,-0.59322 0,-0.0441811 -0.0358189,-0.08 -0.08,-0.08 -0.0441811,0 -0.08,0.0358189 -0.08,0.08 0,0.179976 -0.0215709,0.364728 -0.119386,0.499472 -0.0960551,0.132323 -0.27213,0.22248 -0.586197,0.22248l-3.01141 0c-0.314067,0 -0.490142,-0.0901575 -0.586197,-0.22248 -0.097815,-0.134744 -0.119386,-0.319496 -0.119386,-0.499472z"/>
    <path id="_625026584" class="fil0" d="M0.933331 4.30127c-0.0441811,0 -0.08,0.0358189 -0.08,0.08 0,0.0441811 0.0358189,0.08 0.08,0.08l4.96 0c0.0441811,0 0.08,-0.0358189 0.08,-0.08 0,-0.0441811 -0.0358189,-0.08 -0.08,-0.08l-4.96 0z"/>
    <path id="_625020704" class="fil0" d="M1.93527 4.41143c0.0181181,0.0402087 0.0654134,0.0581181 0.105622,0.04 0.0402087,-0.0181181 0.0581181,-0.0654134 0.04,-0.105622 -0.0088937,-0.0196929 -0.0155748,-0.0387756 -0.0198622,-0.057622 -0.0041811,-0.0183661 -0.00633858,-0.0378858 -0.00633858,-0.0590827 0,-0.0949449 0.0506063,-0.182181 0.132417,-0.246461 0.0872126,-0.0685276 0.208858,-0.110917 0.34424,-0.110917 0.135386,0 0.257031,0.0423937 0.344244,0.110917 0.081811,0.0642795 0.132417,0.151516 0.132417,0.246461 0,0.0208661 -0.00216142,0.0405591 -0.00629528,0.0589843 -0.00429528,0.0191299 -0.0110236,0.0384016 -0.0199567,0.0575827 -0.0186378,0.0400394 -0.00129134,0.0876142 0.038748,0.106252 0.0400394,0.0186378 0.0876142,0.00129134 0.106252,-0.038748 0.0131575,-0.028252 0.0234528,-0.0583543 0.0305787,-0.0900866 0.00701181,-0.0312362 0.0106732,-0.0626614 0.0106732,-0.0939843 0,-0.14661 -0.0740157,-0.278071 -0.193669,-0.372083 -0.114248,-0.0897677 -0.270945,-0.145295 -0.442992,-0.145295 -0.172047,0 -0.328744,0.0555276 -0.442988,0.145295 -0.119654,0.0940118 -0.193669,0.225472 -0.193669,0.372083 0,0.0318976 0.00364961,0.0630315 0.0107165,0.0940827 0.00695276,0.030563 0.0169724,0.0597087 0.0298622,0.0882441z"/>
    <path id="_625021232" class="fil0" d="M1.615 4.39881l0.000354331 0.00127559 -0.000110236 3.14961e-005 -0.000362205 -0.00127559 -6.29921e-005 1.5748e-005c-0.000192913,-0.000720472 -0.000374016,-0.00143307 -0.000543307,-0.00215354 -0.00731102,-0.0260906 -0.0130197,-0.0532874 -0.0170039,-0.0815394 -0.00410236,-0.0290433 -0.0062126,-0.0577835 -0.0062126,-0.0860669 0,-0.212488 0.108,-0.403591 0.282598,-0.540772 0.169193,-0.132941 0.401795,-0.215169 0.657689,-0.215169 0.255886,0 0.488496,0.0822283 0.657689,0.215169 0.174598,0.137181 0.282598,0.328283 0.282598,0.540772 0,0.0287953 -0.00214567,0.0578858 -0.00631102,0.0871417 -0.00404724,0.0283937 -0.0102874,0.0569843 -0.0185787,0.0856378 -0.012252,0.0422835 -0.0564685,0.066626 -0.098752,0.054374 -0.0422835,-0.012252 -0.066626,-0.0564685 -0.054374,-0.098752 0.00584252,-0.020189 0.0104016,-0.0414606 0.0135787,-0.0637638 0.0029252,-0.0205669 0.00443701,-0.042126 0.00443701,-0.0646378 0,-0.160823 -0.0845906,-0.307701 -0.221346,-0.41515 -0.142161,-0.111697 -0.339709,-0.180791 -0.558941,-0.180791 -0.219228,0 -0.41678,0.0690945 -0.558941,0.180791 -0.136756,0.107449 -0.221346,0.254327 -0.221346,0.41515 0,0.0225 0.00147638,0.0439134 0.00433858,0.0641929 0.00278346,0.0197126 0.00705118,0.0397205 0.0127047,0.0599291 0.000476378,0.00144882 0.000917323,0.00291732 0.00131496,0.00440945l-0.0772992 0.0206142 0.077189 -0.020311 3.14961e-005 0.00011811c0.0112165,0.0426299 -0.014248,0.0862835 -0.056878,0.0975 -0.0421535,0.0110906 -0.0853031,-0.013689 -0.0971063,-0.0554646l0.0708583 -0.0201614 -0.0297362 0.00782283 -0.0414764 0.011063z"/>
    <path id="_625021064" class="fil0" d="M2.46152 4.43793c0.0324449,0.0298543 0.0829606,0.0277559 0.112815,-0.00468898 0.0292205,-0.031752 0.0278268,-0.080811 -0.00265748,-0.110874l-0.0547874 0.0553898 0.0285394 -0.0310118 0.0242559 -0.0262795c0.000677165,0.000625984 0.00134252,0.00125984 0.00199213,0.00190157l0.000106299 -0.000110236c-0.0498465,-0.0493031 -0.0889134,-0.103394 -0.114906,-0.16065 -0.0245354,-0.0540472 -0.0377756,-0.111524 -0.0377756,-0.171071 0,-0.158858 0.0955354,-0.304807 0.249988,-0.412339 0.162933,-0.113437 0.389441,-0.183606 0.640886,-0.183606 0.251445,0 0.477953,0.0701693 0.640886,0.183606 0.154453,0.107531 0.249988,0.25348 0.249988,0.412339 0,0.0600118 -0.0132402,0.117602 -0.0377677,0.171441 -0.0259331,0.0569213 -0.0645276,0.110524 -0.113563,0.159268l-1.1811e-005 -1.1811e-005 -1.1811e-005 1.1811e-005 -9.44882e-005 -0.000106299c-0.000779528,0.000704724 -0.00153543,0.00142913 -0.00227559,0.00215748l-4.72441e-005 4.72441e-005c-0.0038189,0.00375591 -0.0071811,0.00780315 -0.0100866,0.0120827 -0.0219528,0.0312008 -0.0189134,0.0745906 0.00904724,0.102402 0.0280276,0.027874 0.0715669,0.030622 0.102665,0.00832283l-0.000145669 0.000102362 0.000433071 -0.000307087 -0.000287402 0.000204724 0.00130709 -0.000925197 9.05512e-005 -6.29921e-005 0.00122441 -0.000905512 0.000633858 -0.000484252 0.000956693 -0.000748031 0.000606299 -0.000488189 0.000814961 -0.000669291 0.000877953 -0.000740157 0.000728346 -0.000633858 0.000704724 -0.000622047 0.00038189 -0.000338583 -3.93701e-006 -3.93701e-006c0.000799213,-0.000724409 0.00159055,-0.0014685 0.00236614,-0.00223228l-0.00015748 -0.000161417 0.000125984 -0.000129921c0.0636378,-0.0627008 0.114181,-0.132965 0.14872,-0.208776 0.0342717,-0.0752205 0.0527677,-0.155094 0.0527677,-0.237693 0,-0.214449 -0.121807,-0.406488 -0.318736,-0.543591 -0.188445,-0.131201 -0.44739,-0.212354 -0.732138,-0.212354 -0.284748,0 -0.543693,0.0811535 -0.732138,0.212354 -0.196929,0.137102 -0.318736,0.329142 -0.318736,0.543591 0,0.082563 0.0182795,0.162075 0.0521535,0.236693 0.0344055,0.0757756 0.0845276,0.145858 0.14752,0.208276 0.000814961,0.000814961 0.0016378,0.00162205 0.00249213,0.00240945l0.0542638 -0.0587835 -0.054063 0.058752 5.11811e-005 4.72441e-005zm1.68672 0.00853937c-0.0313465,0.0213543 -0.0744213,0.0179409 -0.101976,-0.0100394 -0.0275079,-0.0279291 -0.0302953,-0.0709606 -0.00858661,-0.101961l-0.000681102 0.000956693c-0.0202953,0.029874 -0.0183386,0.0708228 0.00702756,0.0987244 0.0271693,0.0298898 0.0717835,0.0344449 0.104217,0.0123189zm0.00870472 -0.00709843l-0.0359961 -0.0395551 -0.000200787 -0.000200787 0.0361654 0.0397835 3.14961e-005 -2.75591e-005zm-0.0351614 -0.0387244l0.0352047 0.038685c0.000625984,-0.000594488 0.00125591,-0.00119685 0.00187008,-0.00181496l-0.0370748 -0.0368701z"/>
    <path id="_625021304" class="fil0" d="M3.46523 4.42596c0.000649606,0.00096063 0.0013189,0.00189764 0.002,0.00282283 -0.00295276,-0.00380709 -0.00551575,-0.0078189 -0.00768504,-0.0119803 -0.0330787,-0.0515709 -0.0589764,-0.106413 -0.0766378,-0.163697 -0.0182165,-0.0591181 -0.0278819,-0.120441 -0.0278819,-0.183043 0,-0.212488 0.108,-0.403591 0.282598,-0.540772 0.169193,-0.132941 0.401803,-0.215169 0.657689,-0.215169 0.255894,0 0.488496,0.0822283 0.657689,0.215169 0.174598,0.137181 0.282598,0.328283 0.282598,0.540772 0,0.0628819 -0.00974016,0.124417 -0.0280906,0.183697 -0.0187244,0.0604764 -0.0463307,0.117882 -0.0816063,0.171287l0.000145669 9.44882e-005 -0.000185039 0.000275591 -7.08661e-005 0.000106299 -3.93701e-006 0 3.93701e-006 3.93701e-006c-0.000669291,0.00100394 -0.00135827,0.00198425 -0.00206693,0.00294882l-4.33071e-005 5.90551e-005c-0.0251535,0.0342756 -0.0730945,0.0430039 -0.108831,0.0191772 -0.036063,-0.0240433 -0.0462992,-0.0723071 -0.0235315,-0.108839l0.000145669 -0.000244094 0.000748031 -0.00115748 0.000338583 -0.000527559 0.000114173 -0.000173228 7.08661e-005 -0.000102362 0.000141732 9.44882e-005c0.0270709,-0.0410197 0.0480945,-0.0845591 0.062126,-0.129878 0.0134528,-0.0434606 0.0205945,-0.0892677 0.0205945,-0.136823 0,-0.160823 -0.0845906,-0.307701 -0.221346,-0.41515 -0.142161,-0.111697 -0.339713,-0.180791 -0.558941,-0.180791 -0.219232,0 -0.41678,0.0690945 -0.558941,0.180791 -0.136756,0.107449 -0.221346,0.254327 -0.221346,0.41515 0,0.0473583 0.00706693,0.0929488 0.0203858,0.136169 0.0134055,0.0434882 0.0329528,0.0850276 0.0578701,0.124 0.00124016,0.0015748 0.00243307,0.00320079 0.00357087,0.00488976l-7.08661e-005 4.72441e-005 0.000952756 0.00141339c0.0246772,0.0365866 0.0150236,0.0862638 -0.021563,0.110941 -0.035626,0.0240276 -0.0836575,0.0155039 -0.108941,-0.0187402 0.00205118,0.00264173 0.00428346,0.00518504 0.0067126,0.00761417l3.93701e-006 -3.93701e-006 0.050122 -0.050122 -0.0588386 0.039689zm0.0588622 -0.0397047l-2.3622e-005 1.5748e-005 -0.050122 0.050122 3.93701e-006 3.93701e-006 0.0501417 -0.0501417zm1.51414 -0.0191575l-0.0113819 -0.00753543 0.00701181 0.00467323 0.00597638 0.00395276 -0.0016063 -0.00109055zm-0.0117913 -0.00780709l-0.0335591 -0.0222126 -3.93701e-005 5.90551e-005 0.0407677 0.0269331 -0.00716929 -0.00477953zm-0.0334173 -0.0224291l0.0363425 0.0242283 -0.0361575 -0.0245079 -0.000185039 0.000279528z"/>
    <path id="_625020944" class="fil0" d="M2.79029 4.4312c0.0284764,0.0336535 0.0788465,0.0378504 0.1125,0.00937402 0.0336535,-0.0284764 0.0378504,-0.0788465 0.00937402,-0.1125 -0.0177638,-0.0209528 -0.0330079,-0.0537087 -0.0445827,-0.089252 -0.0140748,-0.0432205 -0.0217441,-0.0882165 -0.0217441,-0.121394 0,-0.15715 0.107898,-0.302386 0.282331,-0.410154 0.185803,-0.114787 0.444417,-0.185791 0.731783,-0.185791 0.287366,0 0.54598,0.071 0.731783,0.185791 0.174437,0.107768 0.282331,0.253 0.282331,0.410154 0,0.0378268 -0.00607874,0.0746102 -0.0176614,0.109988 -0.0122126,0.037311 -0.0306063,0.0736181 -0.0545118,0.10848 -0.0248504,0.0364134 -0.0154764,0.0860866 0.020937,0.110937 0.0364134,0.0248504 0.0860866,0.0154764 0.110937,-0.020937 0.0323386,-0.0471614 0.0574764,-0.0970472 0.0745118,-0.149102 0.0169094,-0.0516535 0.0257874,-0.104961 0.0257874,-0.159366 0,-0.216157 -0.137035,-0.408902 -0.358583,-0.545776 -0.210181,-0.12985 -0.498634,-0.210169 -0.815531,-0.210169 -0.31689,0 -0.605343,0.0803189 -0.815531,0.210169 -0.221543,0.136874 -0.358583,0.329614 -0.358583,0.545776 0,0.0480118 0.0105354,0.111402 0.0298701,0.170772 0.017374,0.0533465 0.0425079,0.105169 0.0745827,0.143z"/>
    <path id="_625020656" class="fil0" d="M3.67078 4.38322c0.000204724,0.00191732 0.000480315,0.00381496 0.000814961,0.00568504l0.0621142 -0.012374 -0.0629291 0.00668898zm0.000814961 0.00570472l7.87402e-006 3.93701e-005 -5.51181e-005 1.1811e-005c-0.000480315,-0.00240157 -0.000838583,-0.00479528 -0.00109843,-0.00718504l-1.1811e-005 -0.000110236c-0.000271654,-0.00255512 -0.00042126,-0.00510236 -0.000448819,-0.00762992 -0.000771654,-0.00868898 -0.00135827,-0.0170906 -0.00174803,-0.0251693 -0.000661417,-0.0135472 -0.001,-0.0242362 -0.001,-0.0319449 0,-0.169579 0.065,-0.32352 0.170083,-0.435303 0.106272,-0.113043 0.253315,-0.182965 0.415933,-0.182965 0.162618,0 0.309661,0.0699213 0.415933,0.182965 0.105083,0.111783 0.170083,0.265724 0.170083,0.435303 0,0.00793701 -0.000350394,0.0188268 -0.00102756,0.0324449 -0.000543307,0.0108661 -0.00137402,0.021815 -0.0024685,0.0328189l-0.079374 -0.00781102 0.0796063 0.00793701 -0.000165354 0.00147638 3.93701e-006 0 -4.33071e-005 0.000330709 -0.00011811 0.000897638 -0.000153543 0.00111811 -0.000125984 0.000811024 -0.000224409 0.0013622 -6.29921e-005 0.000362205 -0.000311024 0.00163386 -8.26772e-005 0.000405512 -0.000358268 0.00164961 -1.9685e-005 7.87402e-005c-0.00274803,0.0119803 -0.00814173,0.0228189 -0.0154606,0.0319606 0.00127559,-0.0016063 0.00248819,-0.00326772 0.00364567,-0.00497638 -0.0159685,0.0233937 -0.0438976,0.0375591 -0.0740669,0.0345591 -0.0309134,-0.00308268 -0.0559567,-0.023374 -0.0665748,-0.0504331 0.000874016,0.00225591 0.00185039,0.00446063 0.00292126,0.00661811 -0.00625984,-0.0125197 -0.00931102,-0.0268031 -0.00819291,-0.0416614l0 -2.75591e-005 0.00015748 -0.00182283 1.9685e-005 -0.000216535 3.93701e-006 0 0.000141732 -0.00134252 0.000228346 2.75591e-005c0.000728346,-0.00756299 0.00129921,-0.0153228 0.00169685,-0.0232598 0.00026378,-0.00537402 0.000405512,-0.0136339 0.000405512,-0.0249409 0,-0.127685 -0.0482795,-0.242894 -0.126335,-0.325925 -0.0768661,-0.0817638 -0.182839,-0.132343 -0.299681,-0.132343 -0.116843,0 -0.222815,0.0505787 -0.299681,0.132343 -0.0780551,0.0830315 -0.126335,0.19824 -0.126335,0.325925 0,0.0112008 0.000129921,0.0193189 0.000377953,0.0244409 0.000311024,0.00640945 0.000712598,0.0124921 0.00119291,0.018248 0.000299213,0.0017126 0.000547244,0.00344488 0.000732283,0.00519685l-0.000267717 2.75591e-005 3.93701e-006 2.75591e-005 9.05512e-005 -7.87402e-006 0.00015748 0.00147638c0.00465748,0.0438346 -0.0271024,0.0831535 -0.070937,0.087811 -0.0418976,0.00445276 -0.0796614,-0.0243622 -0.0869882,-0.0651929l0.052248 -0.0104488 -0.0522559 0.0104094zm0.0623346 -0.0124173l-8.66142e-005 7.87402e-006 -0.00999213 0.002 0.0100787 -0.00200787zm0.0160669 -0.00320079l0.00170079 -0.000181102 -5.11811e-005 3.93701e-006 -0.00164961 0.000177165zm0.927039 -0.00683071l1.1811e-005 -0.000122047 -6.29921e-005 -7.87402e-006 -1.1811e-005 0.000122047 6.29921e-005 7.87402e-006zm0.158661 0.0170354l-0.0373898 -0.00426772 -0.0127677 -0.00135827 0.050126 0.00589764 3.14961e-005 -0.000271654zm-0.0287913 -0.00335433l0.0287992 0.0032874 2.75591e-005 -0.000224409 -0.0288268 -0.00306299zm0.0119803 0.0442559l-0.000397638 0.000496063 -0.000440945 0.000535433c-0.0164843,0.0200315 -0.0424016,0.0316575 -0.070126,0.0287126 -0.0277323,-0.00294882 -0.0506299,-0.0197717 -0.0625315,-0.0428346l-0.000251969 -0.000488189 -0.000326772 -0.000653543m0.133236 0.0152638c-0.0167283,0.020185 -0.0430276,0.0317559 -0.071,0.0284646 -0.0273465,-0.00321654 -0.0498386,-0.0198701 -0.0616575,-0.0425866"/>
    <path id="_625021280" class="fil0" d="M3.88195 4.37268c0.00345276,0.0440079 0.0419331,0.0768898 0.0859409,0.073437 0.0440079,-0.00345276 0.0768898,-0.0419331 0.073437,-0.0859409 -0.000468504,-0.00584646 -0.000685039,-0.00814961 -0.000692913,-0.00842913 -5.11811e-005,-0.00129134 7.87402e-005,-0.00144488 7.87402e-005,-0.00842126 0,-0.0586496 0.0242441,-0.111736 0.0634291,-0.150142 0.0394764,-0.038689 0.0943622,-0.062622 0.155291,-0.062622 0.0609291,0 0.115815,0.0239331 0.155291,0.062622 0.039185,0.0384055 0.0634291,0.0914882 0.0634291,0.150142 0,0.00762992 0.000220472,0.00509449 0.000133858,0.00762992 -2.3622e-005,0.000755906 -0.000153543,0.00154724 -0.000531496,0.00691732 -0.0031063,0.0440079 0.0300551,0.0822087 0.074063,0.085315 0.0440079,0.0031063 0.0822087,-0.0300551 0.085315,-0.074063 9.05512e-005,-0.00127953 0.000271654,-0.00568504 0.000531496,-0.0131693 0.000322835,-0.00925984 0.000488189,-0.0117874 0.000488189,-0.0126299 0,-0.103039 -0.0426378,-0.196343 -0.111555,-0.26389 -0.0686378,-0.0672677 -0.163118,-0.108874 -0.267165,-0.108874 -0.104043,0 -0.198528,0.0416063 -0.267165,0.108874 -0.0689173,0.0675472 -0.111555,0.160854 -0.111555,0.26389 0,0.000748031 0.000185039,0.00571654 0.000543307,0.0146732 0.000314961,0.00803543 0.000551181,0.012874 0.000692913,0.0146811z"/>
    <path id="_625020848" class="fil0" d="M3.35919 2.66804c-0.0226063,0.0377953 -0.0102953,0.0867677 0.0275,0.109374 0.0377953,0.0226063 0.0867677,0.0102953 0.109374,-0.0275 0.132732,-0.221768 0.0617283,-0.404571 -0.00881496,-0.586165 -0.06,-0.154461 -0.119579,-0.30785 0.00412992,-0.472791 0.0264016,-0.0352087 0.0192677,-0.0851614 -0.0159409,-0.111563 -0.0352087,-0.0264016 -0.0851614,-0.0192677 -0.111563,0.0159409 -0.17689,0.23585 -0.101402,0.430197 -0.025374,0.625917 0.0565079,0.145469 0.113386,0.291906 0.020689,0.446787z"/>
    <path id="_625020800" class="fil0" d="M2.95082 2.95366c-0.0226063,0.0377953 -0.0102953,0.0867677 0.0275,0.109374 0.0377953,0.0226063 0.0867677,0.0102953 0.109374,-0.0275 0.132732,-0.221768 0.0617283,-0.404571 -0.00881496,-0.586165 -0.06,-0.154461 -0.119575,-0.30785 0.00412992,-0.472795 0.0264016,-0.0352087 0.0192677,-0.0851614 -0.0159409,-0.111563 -0.0352087,-0.0264016 -0.0851614,-0.0192677 -0.111563,0.0159409 -0.17689,0.235854 -0.101402,0.430201 -0.025374,0.625921 0.0565079,0.145469 0.113386,0.291906 0.020689,0.446787z"/>
    <path id="_625020560" class="fil0" d="M3.76756 2.95366c-0.0226063,0.0377953 -0.0102953,0.0867677 0.0275,0.109374 0.0377953,0.0226063 0.0867677,0.0102953 0.109374,-0.0275 0.132732,-0.221768 0.0617283,-0.404571 -0.00881496,-0.586165 -0.06,-0.154461 -0.119579,-0.30785 0.00412992,-0.472795 0.0264016,-0.0352087 0.0192677,-0.0851614 -0.0159409,-0.111563 -0.0352087,-0.0264016 -0.0851614,-0.0192677 -0.111563,0.0159409 -0.17689,0.235854 -0.101402,0.430201 -0.025374,0.625921 0.0565079,0.145469 0.113386,0.291906 0.020689,0.446787z"/>
   </g>
   <path id="_625020104" class="fil1" d="M5.62302 4.46127l-4.41938 0c0.00645669,0.153535 0.0344449,0.304654 0.117791,0.419465 0.0960551,0.132323 0.27213,0.22248 0.586197,0.22248l3.01141 0c0.314067,0 0.490142,-0.0901575 0.586197,-0.22248 0.0833465,-0.114811 0.111335,-0.265929 0.117791,-0.419465z"/>
  </g>
 </g>
 <rect class="fil2" width="6.82666" height="6.82666"/>
</svg>
