<?xml version="1.0" encoding="UTF-8"?>
<svg id="Capa_1" data-name="Capa 1" xmlns="http://www.w3.org/2000/svg" viewBox="0 0 125.85 125.85">
  <defs>
    <style>
      .cls-1 {
        fill: #669abe;
      }

      .cls-2 {
        fill: #6c757d;
      }

      .cls-3 {
        fill: #d9d9d9;
      }
    </style>
  </defs>
  <g>
    <path class="cls-1" d="M45.29,52.98v5.14h-7.86v22.8h-6.48v-22.8h-7.86v-5.14h22.21Z"/>
    <path class="cls-1" d="M75.55,66.94c0,2.02-.35,3.9-1.05,5.64s-1.68,3.25-2.94,4.53c-1.27,1.29-2.79,2.29-4.57,3.02s-3.76,1.09-5.93,1.09-4.16-.36-5.95-1.09-3.32-1.73-4.59-3.02c-1.27-1.28-2.26-2.8-2.95-4.53s-1.05-3.62-1.05-5.64,.35-3.9,1.05-5.64c.7-1.74,1.68-3.25,2.95-4.52,1.27-1.28,2.8-2.28,4.59-3.01s3.77-1.09,5.95-1.09,4.15,.37,5.93,1.1c1.78,.74,3.31,1.74,4.57,3.02,1.27,1.28,2.25,2.79,2.94,4.53,.7,1.74,1.05,3.61,1.05,5.62Zm-6.64,0c0-1.38-.18-2.62-.54-3.73s-.87-2.04-1.54-2.81c-.67-.77-1.49-1.35-2.46-1.76-.97-.41-2.08-.61-3.32-.61s-2.37,.2-3.35,.61c-.98,.41-1.8,1-2.47,1.76-.67,.77-1.19,1.7-1.54,2.81s-.54,2.35-.54,3.73,.18,2.64,.54,3.75c.36,1.11,.87,2.04,1.54,2.81,.67,.77,1.49,1.35,2.47,1.76,.98,.4,2.09,.6,3.35,.6s2.35-.2,3.32-.6c.97-.4,1.79-.99,2.46-1.76,.67-.77,1.19-1.7,1.54-2.81,.36-1.11,.54-2.36,.54-3.75Z"/>
    <path class="cls-1" d="M86.29,71.58v9.34h-6.48v-27.94h9.86c1.97,0,3.66,.23,5.07,.7,1.41,.47,2.58,1.11,3.49,1.93,.91,.82,1.59,1.78,2.02,2.9,.43,1.11,.65,2.31,.65,3.61,0,1.39-.22,2.67-.67,3.83-.45,1.16-1.13,2.16-2.05,2.99-.92,.83-2.09,1.48-3.5,1.95-1.41,.47-3.08,.7-5.01,.7h-3.37Zm0-4.89h3.37c1.69,0,2.9-.4,3.64-1.21,.74-.81,1.11-1.93,1.11-3.37,0-.64-.1-1.22-.29-1.74-.19-.52-.48-.98-.87-1.35-.39-.38-.88-.67-1.48-.87-.6-.2-1.3-.31-2.12-.31h-3.37v8.86Z"/>
  </g>
  <g>
    <path class="cls-1" d="M45.29,19.59v5.14h-7.86v22.8h-6.48V24.72h-7.86v-5.14h22.21Z"/>
    <path class="cls-1" d="M75.55,33.54c0,2.02-.35,3.9-1.05,5.64s-1.68,3.25-2.94,4.53c-1.27,1.29-2.79,2.29-4.57,3.02s-3.76,1.09-5.93,1.09-4.16-.36-5.95-1.09-3.32-1.73-4.59-3.02c-1.27-1.28-2.26-2.8-2.95-4.53s-1.05-3.62-1.05-5.64,.35-3.9,1.05-5.64c.7-1.74,1.68-3.25,2.95-4.52,1.27-1.28,2.8-2.28,4.59-3.01s3.77-1.09,5.95-1.09,4.15,.37,5.93,1.1c1.78,.74,3.31,1.74,4.57,3.02,1.27,1.28,2.25,2.79,2.94,4.53,.7,1.74,1.05,3.61,1.05,5.62Zm-6.64,0c0-1.38-.18-2.62-.54-3.73s-.87-2.04-1.54-2.81c-.67-.77-1.49-1.35-2.46-1.76-.97-.41-2.08-.61-3.32-.61s-2.37,.2-3.35,.61c-.98,.41-1.8,1-2.47,1.76-.67,.77-1.19,1.7-1.54,2.81s-.54,2.35-.54,3.73,.18,2.64,.54,3.75c.36,1.11,.87,2.04,1.54,2.81,.67,.77,1.49,1.35,2.47,1.76,.98,.4,2.09,.6,3.35,.6s2.35-.2,3.32-.6c.97-.4,1.79-.99,2.46-1.76,.67-.77,1.19-1.7,1.54-2.81,.36-1.11,.54-2.36,.54-3.75Z"/>
    <path class="cls-1" d="M86.29,38.19v9.34h-6.48V19.59h9.86c1.97,0,3.66,.23,5.07,.7,1.41,.47,2.58,1.11,3.49,1.93,.91,.82,1.59,1.78,2.02,2.9,.43,1.11,.65,2.31,.65,3.61,0,1.39-.22,2.67-.67,3.83-.45,1.16-1.13,2.16-2.05,2.99-.92,.83-2.09,1.48-3.5,1.95-1.41,.47-3.08,.7-5.01,.7h-3.37Zm0-4.89h3.37c1.69,0,2.9-.4,3.64-1.21,.74-.81,1.11-1.93,1.11-3.37,0-.64-.1-1.22-.29-1.74-.19-.52-.48-.98-.87-1.35-.39-.38-.88-.67-1.48-.87-.6-.2-1.3-.31-2.12-.31h-3.37v8.86Z"/>
  </g>
  <polygon class="cls-3" points="62.93 85.94 66.05 95.54 76.14 95.54 67.97 101.48 71.09 111.08 62.93 105.15 54.76 111.08 57.88 101.48 49.71 95.54 59.81 95.54 62.93 85.94"/>
  <polygon class="cls-2" points="53.66 92.9 16.51 92.9 13.14 87.37 55.98 87.37 53.66 92.9"/>
  <polyline class="cls-2" points="72.19 92.9 109.34 92.9 112.71 87.37 69.87 87.37"/>
</svg>